<svg width="32" height="32" viewBox="0 0 32 32" fill="none" xmlns="http://www.w3.org/2000/svg">
<g clip-path="url(#clip0_476_22267)">
<path fill-rule="evenodd" clip-rule="evenodd" d="M17.2046 21.328C18.5294 20.5601 19.6874 19.5351 20.6103 18.3132C20.3116 17.852 20.1001 17.3399 19.9863 16.8023L19.9429 16.6012C19.8172 16.0274 19.5236 15.5041 19.0994 15.0978C18.6753 14.6916 18.1398 14.4208 17.5612 14.32C12.8252 13.4972 12.8252 6.69944 17.5612 5.8743C18.1202 5.77721 18.6394 5.52126 19.0569 5.13703C19.4744 4.75279 19.7724 4.2565 19.9154 3.70744C18.8018 2.49388 17.4389 1.53538 15.9203 0.897605C14.4017 0.259833 12.7631 -0.0421434 11.1169 0.0123634C9.47069 0.0668703 7.8557 0.476572 6.38258 1.2134C4.90946 1.95023 3.61302 2.99678 2.58206 4.28135C1.55111 5.56593 0.809997 7.05817 0.409505 8.65586C0.00901385 10.2535 -0.0413965 11.9189 0.261728 13.5379C0.564852 15.1569 1.21435 16.6912 2.16572 18.0358C3.1171 19.3804 4.34787 20.5034 5.77372 21.328V24C5.77372 24.6062 6.01454 25.1876 6.44319 25.6163C6.87185 26.0449 7.45323 26.2857 8.05944 26.2857H14.9166C15.5228 26.2857 16.1042 26.0449 16.5328 25.6163C16.9615 25.1876 17.2023 24.6062 17.2023 24L17.2046 21.328ZM5.77601 30.2857C5.77601 29.8311 5.95662 29.395 6.27811 29.0735C6.5996 28.7521 7.03564 28.5714 7.49029 28.5714H15.4903C15.945 28.5714 16.381 28.7521 16.7025 29.0735C17.024 29.395 17.2046 29.8311 17.2046 30.2857C17.2046 30.7404 17.024 31.1764 16.7025 31.4979C16.381 31.8194 15.945 32 15.4903 32H7.49029C7.03564 32 6.5996 31.8194 6.27811 31.4979C5.95662 31.1764 5.77601 30.7404 5.77601 30.2857ZM22.416 3.92458C22.8343 2.01372 25.5543 2.0023 25.9886 3.90858L26.0092 4.00001L26.0503 4.1783C26.2956 5.22304 26.8427 6.17263 27.6233 6.909C28.404 7.64537 29.3839 8.13604 30.4412 8.32001C32.4343 8.66744 32.4343 11.5292 30.4412 11.8766C29.3779 12.0616 28.393 12.5568 27.6101 13.2997C26.8273 14.0427 26.2815 15.0004 26.0412 16.0526L25.9886 16.2857C25.5543 18.1943 22.832 18.1829 22.4114 16.2697L22.368 16.0709C22.1376 15.0152 21.598 14.052 20.818 13.3042C20.038 12.5564 19.053 12.0578 17.9886 11.872C15.9977 11.5269 15.9977 8.66972 17.9886 8.3223C19.0493 8.13784 20.0314 7.64277 20.8106 6.89979C21.5898 6.15681 22.131 5.19933 22.3657 4.14858L22.4 4.00001L22.416 3.92458Z" fill="#1A56DB"/>
</g>
<defs>
<clipPath id="clip0_476_22267">
<rect width="32" height="32" fill="white"/>
</clipPath>
</defs>
</svg>
