<?xml version="1.0" encoding="utf-8"?>
<!-- Generator: Adobe Illustrator 24.2.3, SVG Export Plug-In . SVG Version: 6.00 Build 0)  -->
<svg version="1.1" id="圖層_1" xmlns="http://www.w3.org/2000/svg" xmlns:xlink="http://www.w3.org/1999/xlink" x="0px" y="0px"
	 viewBox="0 0 500 500" style="enable-background:new 0 0 500 500;" xml:space="preserve">
<style type="text/css">
	.st0{fill:#F0F0F0;}
	.st1{fill:#407BFF;}
	.st2{opacity:0.35;enable-background:new    ;}
	.st3{opacity:0.2;enable-background:new    ;}
	.st4{opacity:0.15;enable-background:new    ;}
	.st5{opacity:0.1;enable-background:new    ;}
	.st6{fill:#37474F;}
	.st7{fill:#455A64;}
	.st8{fill:#263238;}
	.st9{opacity:0.45;fill:#FFFFFF;enable-background:new    ;}
	.st10{opacity:0.15;fill:#FFFFFF;enable-background:new    ;}
	.st11{opacity:0.7;fill:#FFFFFF;enable-background:new    ;}
	.st12{opacity:0.25;fill:#407BFF;enable-background:new    ;}
	.st13{opacity:0.2;fill:#FFFFFF;enable-background:new    ;}
	.st14{opacity:0.15;fill:#407BFF;enable-background:new    ;}
	.st15{opacity:0.2;}
</style>
<g>
	<path id="freepik--Shadow--inject-168" class="st0" d="M194.5,479.5c-15.4-8.6-15.4-22.6,0-31.2s40.3-8.6,55.7,0s15.4,22.6,0,31.2
		C234.8,488.2,209.9,488.2,194.5,479.5z"/>
	<g id="freepik--Outlet--inject-168">
		<g id="freepik--outlet--inject-168">
			<polygon class="st1" points="370.4,257.3 422,286.2 431.5,280.9 379.9,252 			"/>
			<polygon class="st2" points="370.4,257.3 422,286.2 431.5,280.9 379.9,252 			"/>
			<polygon class="st1" points="422,348.8 422,286.2 431.5,280.9 431.5,343.5 			"/>
			<polygon class="st3" points="422,348.8 422,286.2 431.5,280.9 431.5,343.5 			"/>
			<polygon class="st1" points="422,348.8 370.4,319.9 370.4,257.3 422,286.2 			"/>
			<polygon class="st4" points="422,348.8 370.4,319.9 370.4,257.3 422,286.2 			"/>
			<polygon class="st5" points="422,286.2 419.2,287.7 373.1,261.9 370.4,257.3 			"/>
			<polygon class="st5" points="370.4,319.9 373.1,318.4 419.2,344.2 422,348.8 			"/>
			<polygon class="st1" points="422,348.8 419.2,344.2 419.2,287.7 422,286.2 			"/>
			<polygon class="st1" points="370.4,319.9 373.1,318.4 373.1,261.9 370.4,257.3 			"/>
			<path class="st6" d="M407.4,294.5v29.6c0,1.9-1.3,2.6-3,1.7l-16.5-9.2c-1.8-1.1-2.9-3-3-5v-29.7c0-1.8,1.3-2.6,3-1.7l16.5,9.2
				C406.2,290.6,407.3,292.5,407.4,294.5z"/>
			<path class="st7" d="M404.4,289.5l-15.5-8.7v28.3c0.1,2,1.2,3.9,3,5l15.5,8.7v-28.3C407.3,292.5,406.2,290.6,404.4,289.5z"/>
			<path class="st8" d="M394.3,287.2l9.7,5.4c0.3,0.2,0.6,0.6,0.6,1v1.3c0,0.4-0.3,0.5-0.6,0.3l-9.7-5.4c-0.3-0.2-0.6-0.6-0.6-1
				v-1.3C393.7,287.2,394,287,394.3,287.2z"/>
			<path class="st8" d="M394.3,306.7l9.7,5.4c0.3,0.2,0.6,0.6,0.6,1v1.3c0,0.4-0.3,0.5-0.6,0.3l-9.7-5.4c-0.3-0.2-0.6-0.6-0.6-1V307
				C393.7,306.7,394,306.5,394.3,306.7z"/>
		</g>
	</g>
	<g id="freepik--Cable--inject-168">
		<g id="freepik--cable--inject-168">
			<g id="freepik--Plug--inject-168">
				<path class="st1" d="M388.4,301.8c-0.1-1-0.7-1.8-1.6-2.2l-2.7-1.5c-1.2-0.7-2.6-1-4-0.9c-1.4-0.1-2.8,0.2-4,0.9l-21.9,12.3v2.2
					l10.6,6l0,0l21.9-12.3c0.9-0.4,1.6-1.2,1.6-2.2L388.4,301.8z M382.9,303.3c-0.2,0.1-0.5,0.2-0.8,0.3c-0.6,0.2-1.2,0.3-1.9,0.3
					c-0.9,0-1.8-0.2-2.7-0.6c-0.2-0.1-0.4-0.2-0.5-0.4c0.2-0.1,0.3-0.3,0.5-0.4c1.4-0.7,3-0.8,4.5-0.3c0.3,0.1,0.5,0.2,0.8,0.3
					c0.2,0.1,0.4,0.2,0.5,0.4C383.3,303.1,383.1,303.2,382.9,303.3z"/>
				<path class="st1" d="M354.2,310.4l10.6,5.9l0,0l21.9-12.2c1.3-0.4,1.9-1.7,1.5-2.9c-0.2-0.7-0.8-1.3-1.5-1.5l-2.7-1.5
					c-1.2-0.7-2.6-1-4-0.9c-1.4-0.1-2.8,0.2-4,0.9 M382.1,300.1c0.3,0.1,0.5,0.2,0.8,0.3c1.5,0.8,1.5,2.2,0,3
					c-0.2,0.1-0.5,0.2-0.8,0.3c-0.6,0.2-1.2,0.3-1.9,0.3c-0.9,0-1.8-0.2-2.7-0.6c-1.5-0.8-1.5-2.2,0-3
					C379,299.7,380.6,299.6,382.1,300.1L382.1,300.1z"/>
				<path class="st9" d="M354.2,310.4l10.6,5.9l0,0l21.9-12.2c1.3-0.4,1.9-1.7,1.5-2.9c-0.2-0.7-0.8-1.3-1.5-1.5l-2.7-1.5
					c-1.2-0.7-2.6-1-4-0.9c-1.4-0.1-2.8,0.2-4,0.9 M382.1,300.1c0.3,0.1,0.5,0.2,0.8,0.3c1.5,0.8,1.5,2.2,0,3
					c-0.2,0.1-0.5,0.2-0.8,0.3c-0.6,0.2-1.2,0.3-1.9,0.3c-0.9,0-1.8-0.2-2.7-0.6c-1.5-0.8-1.5-2.2,0-3
					C379,299.7,380.6,299.6,382.1,300.1L382.1,300.1z"/>
				<path class="st10" d="M386.7,304.1l-21.9,12.3l0,0l-10.6-6v2.2l10.6,5.9l0,0l21.9-12.2c0.9-0.4,1.6-1.2,1.6-2.2v-2.2
					C388.3,302.8,387.7,303.7,386.7,304.1z"/>
				<path class="st10" d="M377.6,303.3c-0.2-0.1-0.4-0.2-0.5-0.4c0.2-0.1,0.3-0.3,0.5-0.4c1.4-0.7,3-0.8,4.5-0.3
					c0.3,0.1,0.5,0.2,0.8,0.3c0.2,0.1,0.4,0.2,0.5,0.4c0.9-0.8,0.7-1.9-0.5-2.6c-0.2-0.1-0.5-0.2-0.8-0.3c-1.5-0.5-3.1-0.4-4.5,0.3
					C376.1,301.2,376.1,302.5,377.6,303.3z"/>
				<path class="st1" d="M388.4,321.3c-0.1-1-0.7-1.8-1.6-2.2l-2.7-1.5c-1.2-0.7-2.6-1-4-0.9c-1.4-0.1-2.8,0.2-4,0.9l-21.9,12.3v2.2
					l10.6,5.9l0,0l21.9-12.3c0.9-0.4,1.6-1.2,1.6-2.2L388.4,321.3z M382.9,322.8c-0.2,0.1-0.5,0.3-0.8,0.3c-0.6,0.2-1.2,0.3-1.9,0.3
					c-0.9,0-1.8-0.2-2.7-0.6c-0.2-0.1-0.4-0.2-0.5-0.4c0.2-0.2,0.3-0.3,0.5-0.4c1.4-0.7,3-0.8,4.5-0.3c0.3,0.1,0.5,0.2,0.8,0.3
					c0.2,0.1,0.4,0.2,0.5,0.4C383.3,322.5,383.1,322.7,382.9,322.8z"/>
				<path class="st1" d="M354.2,329.8l10.6,5.9l0,0l21.9-12.2c1.3-0.4,1.9-1.7,1.5-3c-0.2-0.7-0.8-1.2-1.5-1.5l-2.7-1.5
					c-1.2-0.7-2.6-1-4-0.9c-1.4-0.1-2.8,0.2-4,0.9 M382.1,319.5c0.3,0.1,0.5,0.2,0.8,0.3c1.5,0.8,1.5,2.2,0,3
					c-0.2,0.1-0.5,0.3-0.8,0.3c-0.6,0.2-1.2,0.3-1.9,0.3c-0.9,0-1.8-0.2-2.7-0.6c-1.5-0.8-1.5-2.2,0-3
					C379,319.1,380.6,319,382.1,319.5L382.1,319.5z"/>
				<path class="st9" d="M354.2,329.8l10.6,5.9l0,0l21.9-12.2c1.3-0.4,1.9-1.7,1.5-3c-0.2-0.7-0.8-1.2-1.5-1.5l-2.7-1.5
					c-1.2-0.7-2.6-1-4-0.9c-1.4-0.1-2.8,0.2-4,0.9 M382.1,319.5c0.3,0.1,0.5,0.2,0.8,0.3c1.5,0.8,1.5,2.2,0,3
					c-0.2,0.1-0.5,0.3-0.8,0.3c-0.6,0.2-1.2,0.3-1.9,0.3c-0.9,0-1.8-0.2-2.7-0.6c-1.5-0.8-1.5-2.2,0-3
					C379,319.1,380.6,319,382.1,319.5L382.1,319.5z"/>
				<path class="st10" d="M386.7,323.5l-21.9,12.3l0,0l-10.6-5.9v2.2l10.6,5.9l0,0l21.9-12.2c0.9-0.4,1.6-1.2,1.6-2.2v-2.2
					C388.3,322.2,387.6,323.1,386.7,323.5z"/>
				<path class="st10" d="M377.6,322.8c-0.2-0.1-0.4-0.2-0.5-0.4c0.2-0.1,0.3-0.3,0.5-0.4c1.4-0.7,3-0.8,4.5-0.3
					c0.3,0.1,0.5,0.2,0.8,0.3c0.2,0.1,0.4,0.2,0.5,0.4c0.9-0.8,0.7-1.9-0.5-2.6c-0.2-0.1-0.5-0.2-0.8-0.3c-1.5-0.5-3.1-0.4-4.5,0.3
					C376.1,320.6,376.1,321.9,377.6,322.8z"/>
				<path class="st6" d="M373,342.8c0.8-0.5,1.2-1.4,1.1-2.3v-27c-0.1-2.5-1.5-4.9-3.7-6.3l-15-8.4c-0.8-0.5-1.8-0.6-2.6-0.2
					c-0.6,0.4-2.9,1.6-3.5,2c-0.8,0.5-1.2,1.4-1.1,2.3V330c0.1,2.5,1.5,4.9,3.7,6.3l15,8.4c0.8,0.5,1.8,0.6,2.6,0.3L373,342.8z"/>
				<path class="st8" d="M370.6,315.4v27.1c0,2.3-1.7,3.2-3.7,2.1l-15-8.4c-2.2-1.4-3.6-3.7-3.7-6.3v-27.1c0-2.3,1.7-3.2,3.7-2.1
					l15,8.4C369.1,310.5,370.5,312.8,370.6,315.4z"/>
				<path class="st7" d="M367.1,312.6v27c0,0-20.6,11.9-23.8,13.3c-2.9,1.4-6.4,1.4-9.3,0l-3.8-2.1c-2.8-1.7-4.5-4.7-4.7-7.8v-19
					c0.2-3.2,1.9-6.1,4.7-7.8l21.5-12.1L367.1,312.6z"/>
				<path class="st6" d="M327.6,348.4c0.7,0.9,1.5,1.7,2.5,2.3l3.8,2.1c2.9,1.4,6.4,1.4,9.3,0c3.2-1.4,23.8-13.3,23.8-13.3v-27
					l-29.6,15L327.6,348.4z"/>
				<path class="st8" d="M330.1,321.3l3.8,2.1c2.8,1.7,4.5,4.7,4.7,7.9v19c0,2.9-2.1,4.1-4.7,2.6l-3.8-2.1c-2.8-1.7-4.5-4.7-4.7-7.8
					v-19C325.5,321,327.6,319.9,330.1,321.3z"/>
			</g>
			<path class="st7" d="M232.7,464.1c-2,0-3.9-0.5-5.7-1.4c-4.1-2.3-6.3-6.9-6.3-13V320.1c0-0.9,0.7-1.6,1.6-1.6s1.6,0.7,1.6,1.6
				v129.6c0,5,1.7,8.6,4.7,10.3c3,1.7,7.1,1.2,11.5-1.3l37.2-21c5.9-3.3,11-11.8,11-18.4v-47.2c0-7.8,5.6-17.2,12.6-21.1l29.5-16.5
				c0.8-0.4,1.8-0.2,2.2,0.6c0.4,0.8,0.2,1.7-0.6,2.1l-29.5,16.5c-5.9,3.3-10.9,11.7-10.9,18.4v47.2c0,7.8-5.6,17.2-12.6,21.1
				l-37.2,21C239,463.1,235.9,464,232.7,464.1z"/>
		</g>
	</g>
	<g id="freepik--light-bulb--inject-168">
		<g id="freepik--Bulb--inject-168">
			<g id="freepik--Socket--inject-168">
				
					<ellipse transform="matrix(1 -2.467561e-03 2.467561e-03 1 -0.785 0.5496)" class="st8" cx="222.3" cy="318.4" rx="17.5" ry="9.8"/>
				<path class="st8" d="M238.9,321.6H236c-0.8-1.5-2.1-2.7-3.7-3.5c-5.6-3.1-14.6-3.1-20.1,0c-1.5,0.8-2.8,2-3.6,3.5h-2.8l3.2,5
					l0,0c0.8,1.2,1.9,2.1,3.2,2.8c5.6,3.1,14.6,3.1,20.1,0c1.3-0.7,2.4-1.6,3.2-2.8l0,0L238.9,321.6z"/>
				<ellipse class="st7" cx="222.3" cy="310.7" rx="25.9" ry="14.5"/>
				<ellipse class="st6" cx="222.3" cy="307" rx="26.8" ry="15"/>
				<ellipse class="st7" cx="222.3" cy="303" rx="27.5" ry="15.4"/>
				<ellipse class="st6" cx="222.3" cy="299" rx="28.2" ry="15.8"/>
				<ellipse class="st7" cx="222.3" cy="295.1" rx="28.9" ry="16.2"/>
				<ellipse class="st6" cx="222.3" cy="291.1" rx="29.5" ry="16.5"/>
			</g>
			<path class="st1" d="M253.2,276.3c0-4.4-3-8.9-9.1-12.2c-12.1-6.8-31.6-6.8-43.7,0c-6,3.4-9,7.8-9,12.2v10.2
				c0,4.4,3,8.9,9.1,12.2c12.1,6.8,31.7,6.8,43.7,0c6-3.4,9-7.8,9-12.2C253.2,284.8,253.2,278,253.2,276.3z"/>
			<path class="st1" d="M222.3,71.6c-51.3,0-93,40.4-93,90.2l0,0c0,71.6,60.9,83.5,60.9,112.3c0,4.6,3.1,9.2,9.4,12.7
				c12.5,7,32.8,7,45.4,0c6.3-3.5,9.4-8.1,9.4-12.7l0,0c0-28.9,60.9-40.8,60.9-112.3C315.3,111.9,273.7,71.6,222.3,71.6z"/>
			<path class="st11" d="M222.3,71.6c-51.3,0-93,40.4-93,90.2l0,0c0,71.6,60.9,83.5,60.9,112.3c0,4.6,3.1,9.2,9.4,12.7
				c12.5,7,32.8,7,45.4,0c6.3-3.5,9.4-8.1,9.4-12.7l0,0c0-28.9,60.9-40.8,60.9-112.3C315.3,111.9,273.7,71.6,222.3,71.6z"/>
			<ellipse class="st12" cx="222.3" cy="274.3" rx="26.8" ry="15"/>
			<path class="st12" d="M245.8,281.5c-1.3,1.3-2.9,2.5-4.5,3.4c-10.5,5.9-27.5,5.9-37.9,0c-1.7-0.9-3.2-2-4.5-3.4
				c1.3-1.3,2.9-2.5,4.5-3.4c10.5-5.9,27.5-5.9,37.9,0C243,279.1,244.5,280.2,245.8,281.5z"/>
			<path class="st12" d="M245.8,281.5c-1.3,1.3-2.9,2.5-4.5,3.4c-10.5,5.9-27.5,5.9-37.9,0c-1.7-0.9-3.2-2-4.5-3.4
				c1.3-1.3,2.9-2.5,4.5-3.4c10.5-5.9,27.5-5.9,37.9,0C243,279.1,244.5,280.2,245.8,281.5z"/>
			<path class="st13" d="M269.6,108c-1.2,0.5-2.2,1.1-3.2,1.9c-3.7,2.8-5.2,7.8-4.5,12.3c1.3,8.7,10,14.2,15,20.9
				c5.5,7.4,9.6,15.8,12.1,24.6c0.7,2.6,1.7,7,3.1,9.4c1.8,3.2,5.8,4.5,9.3,3c3.6-1.9,5.5-6.3,6-9.7c3-20.4-1.3-35.7-11.8-51.4
				C289.6,110.4,280.5,103.5,269.6,108z"/>
			<ellipse class="st13" cx="222.3" cy="144.6" rx="66.3" ry="64.3"/>
			<path class="st13" d="M289.7,191c-0.9,2.7-0.5,5.6,1,8.1c1.8,2.7,5.4,3.5,8.2,1.8c2.7-1.7,4.4-4.7,4.4-7.8
				c-0.1-3.3-2.3-6.8-6-7.2C293.6,185.6,290.6,188.3,289.7,191z"/>
			<path class="st14" d="M203.7,265c-2.1-11.4-5.3-17.6-19.8-24.8s-39.6-18.2-50.1-47.6c14,45.1,56.5,57.4,56.5,81.5
				c0,4.6,3.1,9.2,9.4,12.7c2.7,1.5,5.6,2.6,8.6,3.4L203.7,265z"/>
			<path class="st14" d="M240.9,265c2.1-11.4,5.3-17.6,19.8-24.8c14.5-7.2,39.6-18.2,50.1-47.6c-14,45.1-56.5,57.4-56.5,81.5
				c0,4.6-3.1,9.2-9.4,12.7c-2.7,1.5-5.6,2.6-8.6,3.4C237.7,283,239.7,272.1,240.9,265z"/>
			<path class="st7" d="M233.2,283.3h-1.1c0-32.1,1.9-52.2,6.5-67.3c1.1-3.9,2.7-7.7,4.5-11.3c-7.7-2.5-14.8-6.5-20.8-11.9
				c-6,5.3-13.1,9.4-20.8,11.9c1.9,3.6,3.4,7.4,4.5,11.3c4.5,15,6.5,35.2,6.5,67.3h-1.1c0-32-1.9-52-6.4-67
				c-1.1-3.9-2.7-7.7-4.6-11.3c-1,0.3-2,0.5-3.1,0.7c-10.8,1.8-17.1-1.3-19.4-4.7c-1.6-2.3-1.5-5.4,0.1-7.7c1.6-2.3,4.6-3.4,7.4-2.8
				c4.7,0.7,10.6,4.6,15.5,13.3c7.6-2.4,14.6-6.4,20.5-11.7c-1.1-1.1-2.2-2.3-3.1-3.6c-5.1-7.5-4.8-13.9-2.8-17.5
				c1.9-3.6,6.3-5,10-3.2c1.4,0.7,2.6,1.8,3.3,3.2c2,3.6,2.3,10-2.8,17.5c-0.9,1.3-1.9,2.5-3.1,3.6c5.9,5.3,12.9,9.2,20.5,11.7
				c4.9-8.7,10.8-12.7,15.5-13.3c2.9-0.7,5.9,0.5,7.5,2.8c1.7,2.3,1.8,5.4,0.2,7.7c-2.3,3.4-8.6,6.4-19.4,4.7
				c-1-0.2-2.1-0.4-3.1-0.7c-1.9,3.6-3.5,7.3-4.6,11.2C235.1,231.2,233.2,251.3,233.2,283.3z M244.7,204.1c0.9,0.2,1.8,0.4,2.7,0.6
				c10.3,1.7,16.2-1.1,18.3-4.2c1.4-2,1.3-4.7-0.2-6.6c-1.4-2-3.9-2.9-6.3-2.4C255,192.1,249.4,195.8,244.7,204.1L244.7,204.1z
				 M184.1,191.4c-2-0.1-3.9,0.8-5,2.5c-1.5,1.9-1.6,4.6-0.2,6.6c2.2,3.1,8,5.9,18.3,4.2c0.9-0.1,1.8-0.3,2.7-0.6
				c-4.7-8.3-10.4-12-14.5-12.6C185,191.4,184.6,191.4,184.1,191.4L184.1,191.4z M222.3,168.2c-2.4,0-4.6,1.3-5.7,3.4
				c-2.3,4.2-1.2,10.6,2.8,16.4c0.9,1.2,1.8,2.4,2.9,3.4c1.1-1,2.1-2.2,3-3.4c4-5.8,5-12.3,2.7-16.4
				C227,169.5,224.7,168.2,222.3,168.2z"/>
		</g>
	</g>
	<g id="freepik--Sparkles--inject-168">
		<g id="freepik--Shine--inject-168">
			<g id="freepik--shine--inject-168" class="st15">
				<path class="st1" d="M222.1,64.8c-0.3,0-0.5-0.2-0.5-0.5V14.5c0-0.3,0.2-0.5,0.5-0.5c0.3,0,0.5,0.2,0.5,0.5v49.7
					C222.7,64.6,222.4,64.8,222.1,64.8C222.1,64.8,222.1,64.8,222.1,64.8z"/>
				<path class="st1" d="M195.6,68.2c-0.2,0-0.5-0.2-0.5-0.4l-10.3-37.4c-0.1-0.3,0.1-0.6,0.4-0.7c0.3-0.1,0.6,0.1,0.7,0.4
					l10.3,37.4c0.1,0.3-0.1,0.6-0.4,0.6L195.6,68.2z"/>
				<path class="st1" d="M171,78.2c-0.2,0-0.4-0.1-0.5-0.3l-16-26.9c-0.1-0.3,0-0.6,0.3-0.7c0.2-0.1,0.5,0,0.7,0.2l16,26.9
					c0.2,0.2,0.1,0.6-0.2,0.7c0,0,0,0,0,0C171.2,78.2,171.1,78.2,171,78.2z"/>
				<path class="st1" d="M149.8,94.1c-0.1,0-0.3-0.1-0.4-0.2L116,61.5c-0.2-0.2-0.2-0.5,0-0.7c0,0,0,0,0,0c0.2-0.2,0.5-0.2,0.8,0
					l33.4,32.4c0.2,0.2,0.2,0.5,0,0.7c0,0,0,0,0,0C150.1,94,150,94.1,149.8,94.1z"/>
				<path class="st1" d="M133.6,114.7c-0.1,0-0.2,0-0.3-0.1L85.7,87.9c-0.3-0.1-0.3-0.5-0.2-0.7c0.1-0.3,0.5-0.3,0.7-0.2l47.7,26.7
					c0.3,0.1,0.3,0.5,0.2,0.7C134,114.6,133.8,114.7,133.6,114.7L133.6,114.7z"/>
				<path class="st1" d="M123.4,138.6h-0.1l-20-5.2c-0.3-0.1-0.5-0.4-0.4-0.7c0.1-0.3,0.4-0.5,0.7-0.4l20,5.2
					c0.3,0.1,0.5,0.4,0.4,0.6C123.9,138.5,123.7,138.6,123.4,138.6z"/>
				<path class="st1" d="M75.8,165.8c-0.3,0-0.5-0.2-0.5-0.5c0-0.3,0.2-0.5,0.5-0.5l44.2-1.4c0.3,0,0.5,0.2,0.5,0.5
					c0,0.3-0.2,0.5-0.5,0.5L75.8,165.8L75.8,165.8z"/>
				<path class="st1" d="M111.8,193.1c-0.2,0-0.5-0.2-0.5-0.4c-0.1-0.3,0.1-0.6,0.4-0.6c0,0,0,0,0,0l11.8-3.1
					c0.3-0.1,0.6,0.1,0.7,0.4c0.1,0.3-0.1,0.6-0.4,0.7l-11.8,3.1L111.8,193.1z"/>
				<path class="st1" d="M89.9,238.6c-0.2,0-0.4-0.1-0.5-0.3c-0.1-0.2-0.1-0.6,0.2-0.7l43.9-24.6c0.3-0.1,0.6-0.1,0.7,0.2
					s0.1,0.6-0.2,0.7l-43.9,24.6C90.1,238.6,90,238.6,89.9,238.6z"/>
				<path class="st1" d="M116.6,267.1c-0.1,0-0.3-0.1-0.4-0.2c-0.2-0.2-0.2-0.5,0-0.7c0,0,0,0,0,0l33.5-32.6c0.2-0.2,0.6-0.2,0.8,0
					c0.2,0.2,0.2,0.5,0,0.7c0,0,0,0,0,0L117,266.9C116.9,267,116.8,267.1,116.6,267.1z"/>
				<path class="st1" d="M154.7,278.3c-0.1,0-0.2,0-0.3-0.1c-0.3-0.1-0.3-0.5-0.2-0.7c0,0,0,0,0,0l16.7-28.1
					c0.1-0.3,0.4-0.4,0.7-0.3c0.3,0.1,0.4,0.4,0.3,0.7c0,0,0,0.1-0.1,0.1l-16.7,28.1C155.1,278.2,154.9,278.3,154.7,278.3z"/>
				<path class="st1" d="M283.6,266.4c-0.2,0-0.4-0.1-0.5-0.3l-9.8-16.4c-0.2-0.2-0.1-0.6,0.1-0.7c0.2-0.2,0.6-0.1,0.8,0.1
					c0,0,0,0.1,0.1,0.1l9.8,16.4c0.1,0.2,0.1,0.6-0.2,0.7C283.7,266.4,283.6,266.4,283.6,266.4z"/>
				<path class="st1" d="M315.2,253.8c-0.1,0-0.3-0.1-0.4-0.2L294.6,234c-0.2-0.2-0.2-0.5,0-0.7c0.2-0.2,0.6-0.2,0.8,0l0,0
					l20.3,19.7c0.2,0.2,0.2,0.5,0,0.7C315.5,253.8,315.4,253.8,315.2,253.8z"/>
				<path class="st1" d="M356.3,238.8c-0.1,0-0.2,0-0.3-0.1l-45.1-25.3c-0.3-0.1-0.3-0.5-0.2-0.7c0.1-0.2,0.5-0.3,0.7-0.2l45.1,25.3
					c0.3,0.1,0.3,0.5,0.2,0.7C356.6,238.7,356.5,238.8,356.3,238.8z"/>
				<path class="st1" d="M341.9,194.9h-0.1l-20.6-5.3c-0.3-0.1-0.5-0.4-0.4-0.7c0.1-0.3,0.4-0.5,0.7-0.4l20.6,5.3
					c0.3,0.1,0.5,0.4,0.4,0.6C342.3,194.7,342.1,194.9,341.9,194.9z"/>
				<path class="st1" d="M357.9,163.9h-33.2c-0.3,0-0.5-0.2-0.5-0.5c0-0.3,0.2-0.5,0.5-0.5h33.2c0.3,0,0.5,0.2,0.5,0.5
					C358.5,163.6,358.2,163.9,357.9,163.9L357.9,163.9z"/>
				<path class="st1" d="M321.2,138.2c-0.3,0-0.6-0.2-0.6-0.5c0-0.3,0.2-0.6,0.5-0.6l46.6-12.1c0.3-0.1,0.6,0.1,0.7,0.4
					s-0.1,0.6-0.4,0.7l-46.6,12.1L321.2,138.2z"/>
				<path class="st1" d="M310.9,114.2c-0.2,0-0.4-0.1-0.5-0.3c-0.1-0.3-0.1-0.6,0.2-0.7l50.8-28.5c0.3-0.1,0.6-0.1,0.7,0.2
					c0.1,0.3,0.1,0.6-0.2,0.7l0,0l-50.8,28.5C311.1,114.2,311,114.2,310.9,114.2z"/>
				<path class="st1" d="M294.6,93.7c-0.1,0-0.3-0.1-0.4-0.2c-0.2-0.2-0.2-0.5,0-0.7c0,0,0,0,0,0l17.9-17.4c0.2-0.2,0.6-0.2,0.8,0
					s0.2,0.5,0,0.7L295,93.5C294.9,93.6,294.7,93.7,294.6,93.7z"/>
				<path class="st1" d="M273.4,78c-0.1,0-0.2,0-0.3-0.1c-0.3-0.1-0.3-0.5-0.2-0.7l15.9-26.7c0.2-0.2,0.5-0.3,0.7-0.2
					c0.3,0.1,0.3,0.5,0.2,0.7l-15.9,26.7C273.7,77.9,273.5,78,273.4,78z"/>
				<path class="st1" d="M248.6,68.1h-0.1c-0.3-0.1-0.5-0.4-0.4-0.6l10.1-36.7c0.1-0.3,0.4-0.5,0.7-0.4c0.3,0.1,0.5,0.4,0.4,0.7
					l-10.2,36.7C249.1,68,248.9,68.1,248.6,68.1z"/>
				<path class="st1" d="M218.1,64.9c-0.3,0-0.5-0.2-0.5-0.5l-1.3-30.8c0-0.3,0.2-0.5,0.5-0.5c0,0,0,0,0,0l0,0
					c0.3,0,0.5,0.2,0.5,0.5l1.3,30.8C218.6,64.6,218.4,64.9,218.1,64.9C218.1,64.9,218.1,64.9,218.1,64.9L218.1,64.9z"/>
				<path class="st1" d="M191.8,69.3c-0.2,0-0.4-0.1-0.5-0.4l-7.6-23.8c-0.1-0.3,0.1-0.6,0.4-0.7c0.3-0.1,0.6,0.1,0.7,0.4l7.6,23.8
					c0.1,0.3-0.1,0.6-0.3,0.6c0,0,0,0,0,0C191.9,69.3,191.8,69.3,191.8,69.3z"/>
				<path class="st1" d="M167.5,80.3c-0.2,0-0.4-0.1-0.5-0.2l-22.6-34.7c-0.2-0.2-0.1-0.6,0.2-0.7c0.2-0.2,0.6-0.1,0.7,0.1
					c0,0,0,0,0,0L168,79.5c0.2,0.2,0.1,0.6-0.2,0.7C167.7,80.2,167.6,80.3,167.5,80.3z"/>
				<path class="st1" d="M147,96.9c-0.1,0-0.3,0-0.4-0.1l-21.1-18.9c-0.2-0.2-0.3-0.5-0.1-0.7c0.2-0.2,0.5-0.3,0.7-0.1
					c0,0,0.1,0.1,0.1,0.1L147.4,96c0.2,0.2,0.2,0.5,0,0.7c0,0,0,0,0,0C147.3,96.8,147.2,96.9,147,96.9z"/>
				<path class="st1" d="M131.7,118.1c-0.1,0-0.2,0-0.3-0.1l-17.4-8.9c-0.3-0.1-0.4-0.5-0.2-0.7c0.1-0.2,0.5-0.3,0.7-0.2l17.4,8.9
					c0.3,0.1,0.4,0.5,0.2,0.7C132,118,131.9,118.1,131.7,118.1L131.7,118.1z"/>
				<path class="st1" d="M122.5,142.5h-0.1l-55.8-12.2c-0.3-0.1-0.5-0.3-0.4-0.6c0.1-0.3,0.4-0.5,0.7-0.4l0,0l55.8,12.2
					c0.3,0,0.5,0.3,0.5,0.6C123.1,142.3,122.8,142.5,122.5,142.5L122.5,142.5z"/>
				<path class="st1" d="M93,169.3c-0.3,0-0.5-0.2-0.5-0.5c0-0.3,0.2-0.5,0.5-0.5l27.1-1c0.3,0,0.5,0.2,0.6,0.5c0,0,0,0,0,0
					c0,0.3-0.2,0.5-0.5,0.5L93,169.3L93,169.3z"/>
				<path class="st1" d="M88.2,204.8c-0.2,0-0.4-0.1-0.5-0.4c-0.1-0.3,0.1-0.6,0.3-0.7c0,0,0,0,0,0l36.6-11c0.3-0.1,0.6,0.1,0.7,0.3
					c0.1,0.3-0.1,0.6-0.4,0.7l-36.6,11H88.2z"/>
				<path class="st1" d="M88.9,246.2c-0.3,0-0.5-0.2-0.5-0.5c0-0.2,0.1-0.3,0.2-0.4l47.1-28.8c0.3-0.2,0.6-0.1,0.7,0.2
					c0.2,0.2,0.1,0.6-0.2,0.7l0,0l-47.1,28.8C89.1,246.1,89,246.2,88.9,246.2z"/>
				<path class="st1" d="M140.3,250.7c-0.1,0-0.3-0.1-0.4-0.1c-0.2-0.2-0.2-0.5,0-0.7c0,0,0,0,0,0l12.8-13.4
					c0.2-0.2,0.5-0.3,0.7-0.1c0.2,0.2,0.3,0.5,0.1,0.7c0,0-0.1,0.1-0.1,0.1l-12.8,13.4C140.6,250.6,140.5,250.7,140.3,250.7z"/>
				<path class="st1" d="M294.1,273.8c-0.2,0-0.4-0.1-0.5-0.2l-16.8-25.9c-0.2-0.2-0.1-0.6,0.2-0.7c0,0,0,0,0,0
					c0.2-0.2,0.6-0.1,0.7,0.2l16.8,25.9c0.2,0.3,0.1,0.6-0.2,0.7C294.3,273.8,294.2,273.8,294.1,273.8L294.1,273.8z"/>
				<path class="st1" d="M335.3,265c-0.1,0-0.3-0.1-0.4-0.1l-37.6-33.7c-0.2-0.2-0.2-0.5,0-0.7c0,0,0,0,0,0c0.2-0.2,0.6-0.2,0.8,0
					c0,0,0,0,0,0l37.6,33.7c0.2,0.2,0.2,0.5,0,0.7c0,0,0,0,0,0C335.6,265,335.5,265,335.3,265z"/>
				<path class="st1" d="M326.8,217.1c-0.1,0-0.2,0-0.2-0.1l-13.7-7c-0.3-0.1-0.4-0.4-0.2-0.7c0,0,0,0,0,0c0.1-0.2,0.5-0.3,0.7-0.2
					l13.7,7c0.3,0.1,0.4,0.4,0.2,0.7c0,0,0,0,0,0C327.2,217,327,217.1,326.8,217.1z"/>
				<path class="st1" d="M362.3,194.5h-0.1l-40-8.8c-0.3-0.1-0.5-0.3-0.4-0.6c0.1-0.3,0.4-0.5,0.7-0.4l40,8.8c0.3,0,0.5,0.3,0.5,0.6
					C362.9,194.4,362.6,194.6,362.3,194.5L362.3,194.5z"/>
				<path class="st1" d="M324.6,159.9c-0.3,0-0.5-0.2-0.5-0.5c0-0.3,0.2-0.5,0.5-0.5l47.7-1.8c0.3,0,0.5,0.2,0.6,0.5c0,0,0,0,0,0
					c0,0.3-0.2,0.5-0.5,0.5c0,0,0,0,0,0L324.6,159.9z"/>
				<path class="st1" d="M320.1,134.4c-0.2,0-0.4-0.2-0.5-0.4c-0.1-0.3,0.1-0.6,0.4-0.6l15.9-4.8c0.3-0.1,0.6,0,0.7,0.3c0,0,0,0,0,0
					c0.1,0.3-0.1,0.6-0.3,0.7c0,0,0,0,0,0l-15.9,4.8C320.2,134.4,320.1,134.4,320.1,134.4z"/>
				<path class="st1" d="M308.8,110.9c-0.2,0-0.4-0.1-0.5-0.2c-0.2-0.2-0.1-0.6,0.2-0.7L341.1,90c0.3-0.1,0.6-0.1,0.7,0.2
					c0.2,0.2,0.1,0.6-0.2,0.7l-32.5,19.9C309,110.8,308.9,110.9,308.8,110.9z"/>
				<path class="st1" d="M291.7,91c-0.1,0-0.3,0-0.4-0.1c-0.2-0.2-0.2-0.5,0-0.7l33.9-35.6c0.2-0.2,0.6-0.2,0.8,0c0,0,0,0,0,0
					c0.2,0.2,0.2,0.5,0,0.7c0,0,0,0,0,0l-33.9,35.6C292,90.9,291.8,91,291.7,91z"/>
				<path class="st1" d="M269.8,76.1c-0.1,0-0.2,0-0.3-0.1c-0.3-0.1-0.4-0.5-0.2-0.7l24.8-45.8c0.1-0.3,0.4-0.4,0.7-0.3
					c0.3,0.1,0.4,0.4,0.3,0.7c0,0,0,0,0,0.1l-24.8,45.8C270.2,76,270,76.1,269.8,76.1z"/>
				<path class="st1" d="M244.7,67.2h-0.1c-0.3-0.1-0.5-0.3-0.4-0.6l2.7-11.8c0.1-0.3,0.4-0.5,0.7-0.4c0.3,0.1,0.5,0.3,0.4,0.6l0,0
					l-2.8,11.8C245.2,67,245,67.2,244.7,67.2z"/>
				<path class="st1" d="M232.8,65.3L232.8,65.3c-0.3,0-0.6-0.3-0.5-0.6l4.6-42.6c0-0.3,0.3-0.5,0.6-0.5c0.3,0,0.5,0.3,0.5,0.6
					c0,0,0,0,0,0l-4.6,42.5C233.3,65.1,233.1,65.3,232.8,65.3z"/>
				<path class="st1" d="M206.1,66.1c-0.3,0-0.5-0.2-0.5-0.4l-8.1-49.3c0-0.3,0.2-0.5,0.5-0.6c0.3,0,0.6,0.1,0.6,0.4c0,0,0,0,0,0
					l8.1,49.3C206.7,65.7,206.5,66,206.1,66.1C206.2,66.1,206.2,66.1,206.1,66.1L206.1,66.1z"/>
				<path class="st1" d="M180.5,73.5c-0.2,0-0.4-0.1-0.5-0.3l-18.6-40.5c-0.1-0.2-0.1-0.6,0.2-0.7c0.3-0.1,0.6-0.1,0.7,0.2
					c0,0,0,0.1,0,0.1L181,72.8c0.1,0.3,0,0.6-0.3,0.7c0,0,0,0,0,0C180.6,73.5,180.6,73.5,180.5,73.5z"/>
				<path class="st1" d="M157.7,87.1c-0.2,0-0.3-0.1-0.4-0.2l-23.1-27.7c-0.2-0.2-0.1-0.6,0.1-0.7c0.2-0.2,0.6-0.1,0.8,0.1
					l23.1,27.7c0.2,0.2,0.2,0.5-0.1,0.7C158,87.1,157.8,87.1,157.7,87.1z"/>
				<path class="st1" d="M139.4,106c-0.1,0-0.2,0-0.3-0.1l-38.6-27.2c-0.2-0.2-0.3-0.5-0.1-0.7c0.2-0.2,0.5-0.3,0.8-0.1l38.6,27.2
					c0.2,0.2,0.3,0.5,0.1,0.7C139.7,105.9,139.6,106,139.4,106z"/>
				<path class="st1" d="M126.7,128.8c-0.1,0-0.1,0-0.2,0l-38-14.1c-0.3-0.1-0.4-0.4-0.3-0.7c0.1-0.3,0.4-0.4,0.7-0.3c0,0,0,0,0,0
					l38,14.1c0.3,0.1,0.4,0.4,0.3,0.7C127.1,128.7,126.9,128.8,126.7,128.8z"/>
				<path class="st1" d="M120.6,154L120.6,154l-44.8-4.6c-0.3,0-0.5-0.3-0.5-0.6c0,0,0,0,0,0c0-0.3,0.3-0.5,0.6-0.5c0,0,0,0,0,0
					l44.8,4.6c0.3,0,0.5,0.3,0.5,0.6c0,0,0,0,0,0C121.1,153.8,120.8,154,120.6,154z"/>
				<path class="st1" d="M66.7,188.3c-0.3,0-0.6-0.2-0.6-0.5c0-0.3,0.2-0.5,0.5-0.6l54.7-8.4c0.3,0,0.6,0.1,0.6,0.4c0,0,0,0,0,0
					c0,0.3-0.2,0.5-0.5,0.6L66.7,188.3L66.7,188.3z"/>
				<path class="st1" d="M95.2,219.3c-0.3,0.1-0.6-0.1-0.6-0.4c-0.1-0.3,0.1-0.6,0.4-0.6l33.7-14.6c0.3-0.1,0.6,0,0.7,0.2
					s0,0.6-0.2,0.7c0,0,0,0-0.1,0l-33.7,14.6C95.4,219.3,95.3,219.3,95.2,219.3z"/>
				<path class="st1" d="M114.9,248.9c-0.2,0-0.3-0.1-0.4-0.2c-0.2-0.2-0.1-0.6,0.1-0.7l28.1-22.1c0.2-0.2,0.6-0.1,0.7,0.1
					c0.1,0.2,0.1,0.5-0.1,0.7l-28.1,22.1C115.1,248.9,115,248.9,114.9,248.9z"/>
				<path class="st1" d="M128.3,290.3c-0.1,0-0.2,0-0.3-0.1c-0.2-0.2-0.3-0.5-0.1-0.7l34.2-45.7c0.2-0.2,0.5-0.3,0.7-0.1
					c0,0,0,0,0,0c0.2,0.2,0.3,0.5,0.1,0.7c0,0,0,0,0,0l-34.2,45.7C128.6,290.2,128.4,290.3,128.3,290.3z"/>
				<path class="st1" d="M315.8,275.5c-0.2,0-0.3-0.1-0.4-0.2l-28.7-34.4c-0.2-0.2-0.2-0.6,0.1-0.7c0.2-0.2,0.6-0.1,0.8,0.1
					l28.8,34.4c0.2,0.2,0.1,0.6-0.1,0.7C316,275.5,315.9,275.5,315.8,275.5z"/>
				<path class="st1" d="M338.2,245.4c-0.1,0-0.2,0-0.3-0.1l-32.8-23.1c-0.2-0.2-0.3-0.5-0.1-0.7c0.2-0.2,0.5-0.3,0.8-0.1l32.8,23.1
					c0.2,0.2,0.3,0.5,0.1,0.7C338.5,245.3,338.4,245.4,338.2,245.4z"/>
				<path class="st1" d="M350.4,211.4c-0.1,0-0.1,0-0.2,0l-32.3-12c-0.3-0.1-0.4-0.4-0.4-0.7c0.1-0.3,0.4-0.4,0.7-0.3
					c0,0,0.1,0,0.1,0l32.3,12c0.3,0.1,0.5,0.3,0.4,0.6C350.9,211.4,350.6,211.6,350.4,211.4L350.4,211.4z"/>
				<path class="st1" d="M338.2,175.6L338.2,175.6l-14-1.4c-0.3,0-0.5-0.3-0.5-0.6c0-0.3,0.3-0.5,0.6-0.5c0,0,0,0,0,0l14,1.4
					c0.3,0,0.5,0.3,0.5,0.6C338.8,175.4,338.5,175.6,338.2,175.6C338.2,175.6,338.2,175.6,338.2,175.6z"/>
				<path class="st1" d="M323.4,148.3c-0.3,0-0.5-0.2-0.5-0.4c0-0.3,0.2-0.6,0.5-0.6c0,0,0,0,0,0l28.7-4.4c0.3,0,0.6,0.2,0.6,0.4
					c0,0.3-0.2,0.6-0.5,0.6l-28.7,4.4L323.4,148.3z"/>
				<path class="st1" d="M315.8,123.5c-0.3,0.1-0.6-0.1-0.6-0.4c-0.1-0.3,0.1-0.6,0.4-0.6l0,0l24.7-10.6c0.3-0.1,0.6,0,0.7,0.3
					c0.1,0.2,0,0.5-0.3,0.6L316,123.4C316,123.4,315.9,123.5,315.8,123.5z"/>
				<path class="st1" d="M301.8,101.4c-0.3,0-0.5-0.2-0.5-0.5c0-0.2,0.1-0.3,0.2-0.4l22.5-17.7c0.2-0.2,0.6-0.2,0.7,0.1c0,0,0,0,0,0
					c0.2,0.2,0.2,0.5-0.1,0.7c0,0,0,0,0,0l-22.5,17.7C302,101.3,301.9,101.4,301.8,101.4z"/>
				<path class="st1" d="M282.3,83.6c-0.1,0-0.2,0-0.3-0.1c-0.2-0.2-0.3-0.5-0.1-0.7l7.2-9.6c0.2-0.2,0.5-0.3,0.8-0.1
					c0.2,0.2,0.3,0.5,0.1,0.7c0,0,0,0,0,0l-7.2,9.6C282.7,83.5,282.5,83.6,282.3,83.6z"/>
				<path class="st1" d="M258.8,71.3c-0.1,0-0.1,0-0.2,0c-0.3-0.1-0.4-0.4-0.3-0.7l13.1-33.1c0.1-0.3,0.4-0.4,0.7-0.3
					c0.3,0.1,0.4,0.4,0.3,0.7l-13.1,33.1C259.2,71.1,259,71.3,258.8,71.3z"/>
			</g>
			<g id="freepik--shine--inject-168_1_">
				<path class="st1" d="M124.5,220.3L124.5,220.3c-0.3,0.2-0.7,0.1-0.9-0.2l-0.4-0.5l0,0c-1-1.3-2.8-1.8-4.3-1l-0.6,0.3
					c-0.3,0.1-0.7,0-0.8-0.4c-0.1-0.2,0-0.5,0.1-0.7l0.5-0.4c1.4-0.9,1.8-2.7,1-4.2l-0.3-0.6c-0.2-0.3-0.1-0.7,0.2-0.8
					c0.3-0.2,0.7-0.1,0.9,0.2l0.4,0.5c1,1.3,2.8,1.7,4.3,1l0.6-0.3c0.3-0.1,0.7,0,0.8,0.4c0.1,0.2,0,0.5-0.1,0.7l-0.5,0.4
					c-1.4,0.9-1.8,2.7-1,4.2l0.3,0.6C124.9,219.8,124.8,220.1,124.5,220.3z M120.3,217c0.8,0,1.6,0.2,2.4,0.5c0-0.8,0.2-1.6,0.5-2.3
					c-0.8,0-1.6-0.2-2.4-0.5C120.9,215.5,120.7,216.3,120.3,217L120.3,217z"/>
				<path class="st1" d="M151.8,254.4c-1.9,1.3-4.6,0.8-5.9-1.1c-1.3-1.9-0.8-4.4,1.2-5.7c1.9-1.3,4.6-0.8,5.9,1.1
					c0.5,0.7,0.7,1.6,0.7,2.4C153.6,252.4,152.9,253.7,151.8,254.4z M147.8,248.6c-0.1,0.1-0.3,0.2-0.4,0.3c-1.2,1.1-1.2,2.9-0.1,4
					c0.5,0.5,1.3,0.9,2,0.9c1.6,0.1,3-1.2,3-2.7c0.1-1.6-1.2-2.9-2.8-2.9C148.9,248.1,148.3,248.3,147.8,248.6L147.8,248.6z"/>
				<path class="st1" d="M127.6,247.5L127.6,247.5l-1.7,1.3c-0.3,0.2-0.7,0.2-1-0.1c-0.2-0.3-0.2-0.7,0.1-0.9l0,0l1.7-1.3
					c0.3-0.2,0.7-0.2,0.9,0.1C128,246.8,127.9,247.2,127.6,247.5L127.6,247.5L127.6,247.5z"/>
				<path class="st1" d="M130.9,249.3L130.9,249.3c-0.3,0.2-0.7,0.2-0.9-0.1c0,0,0,0,0,0l-1.4-1.7c-0.2-0.3-0.2-0.7,0.1-0.9
					c0.3-0.2,0.7-0.2,0.9,0.1l1.4,1.7C131.2,248.7,131.1,249.1,130.9,249.3z"/>
				<path class="st1" d="M131.5,244.4L131.5,244.4l-1.7,1.3c-0.3,0.2-0.7,0.2-0.9-0.1c-0.2-0.3-0.2-0.7,0.1-0.9l1.7-1.3
					c0.3-0.2,0.7-0.2,0.9,0.1C131.8,243.8,131.8,244.2,131.5,244.4C131.5,244.4,131.5,244.4,131.5,244.4z"/>
				<path class="st1" d="M127.7,245.6L127.7,245.6c-0.3,0.2-0.7,0.2-0.9-0.1l-1.4-1.7c-0.2-0.3-0.2-0.7,0.1-0.9c0,0,0,0,0,0
					c0.3-0.2,0.7-0.2,0.9,0.1l1.4,1.7C128.1,244.9,128,245.3,127.7,245.6C127.7,245.6,127.7,245.6,127.7,245.6z"/>
			</g>
			<g id="freepik--shine--inject-168_2_">
				<path class="st1" d="M331.7,192.6L331.7,192.6c0.3,0.2,0.4,0.5,0.3,0.8l-0.2,0.6l0,0c-0.6,1.5-0.1,3.2,1.3,4.1l0.5,0.3
					c0.3,0.2,0.5,0.5,0.3,0.9c-0.2,0.3-0.6,0.4-0.9,0.3l-0.6-0.2c-1.5-0.6-3.3-0.1-4.2,1.3l-0.3,0.5c-0.2,0.3-0.6,0.4-0.9,0.2
					c-0.3-0.2-0.4-0.5-0.3-0.8l0.2-0.6c0.7-1.5,0.1-3.2-1.3-4.1l-0.5-0.3c-0.3-0.2-0.5-0.5-0.3-0.9c0.2-0.3,0.6-0.4,0.9-0.3l0.6,0.2
					c1.5,0.6,3.3,0.1,4.2-1.3l0.3-0.5C331,192.5,331.4,192.4,331.7,192.6z M330.9,197.7c-0.4-0.7-0.7-1.4-0.7-2.2
					c-0.7,0.4-1.5,0.7-2.3,0.7c0.4,0.7,0.7,1.4,0.7,2.2C329.3,198,330.1,197.8,330.9,197.7z"/>
				<path class="st1" d="M337.2,149.1c2.1,1,3,3.4,2,5.5s-3.5,2.9-5.6,2c-2.1-1-3-3.4-2-5.5c0.4-0.8,1-1.4,1.8-1.9
					C334.6,148.6,336,148.6,337.2,149.1z M334.2,155.4c0.1,0.1,0.3,0.1,0.4,0.2c0.7,0.2,1.5,0.1,2.2-0.3c0.7-0.4,1.2-1,1.4-1.7
					c0.4-1.5-0.5-3.1-2.1-3.5c-1.6-0.4-3.2,0.5-3.6,2c-0.2,0.7-0.1,1.4,0.3,2.1C333.2,154.7,333.7,155.2,334.2,155.4L334.2,155.4z"
					/>
				<path class="st1" d="M347.4,174.3L347.4,174.3l2,0.9c0.3,0.2,0.5,0.5,0.3,0.9c0,0,0,0,0,0c-0.2,0.3-0.6,0.4-0.9,0.3l-2-0.9
					c-0.3-0.1-0.5-0.5-0.3-0.8c0,0,0,0,0,0C346.7,174.3,347.1,174.2,347.4,174.3z"/>
				<path class="st1" d="M347.8,170.7L347.8,170.7c0.3,0.2,0.5,0.5,0.3,0.9l-1,1.9c-0.2,0.3-0.6,0.4-0.9,0.3
					c-0.3-0.2-0.5-0.5-0.3-0.9l0,0l1-1.9C347.1,170.7,347.5,170.5,347.8,170.7C347.8,170.7,347.8,170.7,347.8,170.7z"/>
				<path class="st1" d="M343,172.2L343,172.2l2,0.9c0.3,0.2,0.5,0.5,0.3,0.9c0,0,0,0,0,0c-0.2,0.3-0.6,0.4-0.9,0.3l-2-0.9
					c-0.3-0.2-0.4-0.6-0.2-0.9C342.3,172.2,342.7,172.1,343,172.2L343,172.2z"/>
				<path class="st1" d="M345.6,175L345.6,175c0.3,0.2,0.5,0.5,0.3,0.9l-1,1.9c-0.2,0.3-0.6,0.4-0.9,0.2c-0.3-0.2-0.4-0.5-0.3-0.8
					l1-1.9C344.9,175,345.3,174.9,345.6,175C345.6,175,345.6,175,345.6,175z"/>
			</g>
			<g id="freepik--shine--inject-168_3_">
				<path class="st1" d="M125.3,97.3L125.3,97.3c0.3,0.1,0.6,0.4,0.5,0.7l-0.1,0.6l0,0c-0.2,1.6,0.8,3.1,2.4,3.5l0.6,0.2
					c0.4,0.1,0.6,0.4,0.5,0.8c-0.1,0.3-0.4,0.6-0.8,0.5l-0.6-0.1c-1.7-0.2-3.2,0.8-3.6,2.4l-0.2,0.6c-0.1,0.3-0.4,0.6-0.8,0.5
					c-0.4-0.1-0.6-0.4-0.5-0.7l0.1-0.6c0.2-1.6-0.8-3.1-2.4-3.5l-0.6-0.2c-0.3-0.1-0.5-0.4-0.5-0.7c0.1-0.3,0.4-0.6,0.7-0.5l0.6,0.1
					c1.7,0.2,3.2-0.8,3.6-2.4l0.2-0.6C124.7,97.5,125,97.3,125.3,97.3z M126.1,102.5c-0.6-0.5-1.1-1.2-1.3-2c-0.5,0.6-1.2,1.1-2,1.3
					c0.6,0.5,1.1,1.2,1.4,2C124.6,103.2,125.3,102.7,126.1,102.5z"/>
				<path class="st1" d="M139.8,69.4c2.3,0.3,3.9,2.5,3.5,4.7c-0.4,2.2-2.5,3.8-4.8,3.4c-2.3-0.3-3.9-2.5-3.5-4.7
					c0.1-0.9,0.5-1.7,1.2-2.3C137.1,69.6,138.5,69.2,139.8,69.4z M138.8,76.2c0.2,0,0.3,0,0.5,0c1.6,0,2.9-1.3,2.9-2.9
					c0-1.6-1.3-2.8-2.9-2.8c-1.6,0-2.9,1.3-2.9,2.8c0,0.7,0.3,1.5,0.9,2C137.6,75.8,138.1,76.1,138.8,76.2L138.8,76.2z"/>
				<path class="st1" d="M172.7,66L172.7,66l2.2,0.4c0.4,0.1,0.6,0.4,0.5,0.8c-0.1,0.3-0.4,0.6-0.7,0.5c0,0,0,0,0,0l-2.2-0.4
					c-0.4-0.1-0.6-0.4-0.5-0.7C172,66.1,172.3,65.9,172.7,66C172.7,66,172.7,66,172.7,66z"/>
				<path class="st1" d="M172,62.4L172,62.4c0.4,0.1,0.6,0.4,0.5,0.7l-0.4,2.1c-0.1,0.3-0.4,0.6-0.8,0.5c-0.4-0.1-0.6-0.4-0.5-0.7
					c0,0,0,0,0,0l0.4-2.1C171.3,62.5,171.6,62.3,172,62.4C172,62.4,172,62.4,172,62.4z"/>
				<path class="st1" d="M167.8,65.1L167.8,65.1l2.2,0.4c0.4,0.1,0.6,0.4,0.5,0.7c0,0,0,0,0,0c-0.1,0.3-0.4,0.6-0.8,0.5l-2.2-0.4
					c-0.4-0.1-0.6-0.4-0.5-0.8C167.1,65.3,167.5,65.1,167.8,65.1z"/>
				<path class="st1" d="M171.2,67.1L171.2,67.1c0.4,0.1,0.6,0.4,0.5,0.7v0l-0.4,2.1c-0.1,0.3-0.4,0.6-0.7,0.5c0,0,0,0,0,0
					c-0.4-0.1-0.6-0.4-0.5-0.7c0,0,0,0,0,0l0.4-2.1C170.4,67.3,170.8,67.1,171.2,67.1z"/>
			</g>
		</g>
	</g>
</g>
</svg>
