<svg width="32" height="32" viewBox="0 0 32 32" fill="none" xmlns="http://www.w3.org/2000/svg">
<g clip-path="url(#clip0_86_2538)">
<path d="M14.2322 14.231C15.1394 13.3239 16.3604 12.8002 17.6429 12.7682C18.9253 12.7362 20.171 13.1983 21.1222 14.059L21.3032 14.231L24.1312 17.06C25.0523 17.9827 25.5765 19.2286 25.5922 20.5322C25.6079 21.8358 25.1138 23.094 24.2153 24.0385C23.3167 24.9831 22.0848 25.5394 20.782 25.5888C19.4793 25.6382 18.2087 25.1768 17.2412 24.303L17.0612 24.131L14.9392 22.009C14.7599 21.829 14.6558 21.5876 14.648 21.3336C14.6402 21.0797 14.7294 20.8323 14.8975 20.6417C15.0655 20.4511 15.2998 20.3317 15.5527 20.3076C15.8056 20.2835 16.0582 20.3566 16.2592 20.512L16.3532 20.595L18.4752 22.717C19.0253 23.2703 19.7693 23.5875 20.5494 23.6014C21.3294 23.6152 22.0842 23.3247 22.6536 22.7913C23.223 22.2579 23.5622 21.5237 23.5993 20.7444C23.6364 19.9651 23.3684 19.202 22.8522 18.617L22.7172 18.474L19.8892 15.646C19.6106 15.3674 19.2799 15.1463 18.9159 14.9955C18.5519 14.8447 18.1617 14.7671 17.7677 14.7671C17.3737 14.7671 16.9836 14.8447 16.6196 14.9955C16.2556 15.1463 15.9248 15.3674 15.6462 15.646C15.4586 15.8335 15.2041 15.9388 14.9389 15.9387C14.6736 15.9386 14.4192 15.8331 14.2317 15.6455C14.0442 15.4579 13.9389 15.2034 13.939 14.9381C13.9391 14.6729 14.0446 14.4185 14.2322 14.231ZM7.86823 7.86699C8.77536 6.95993 9.99643 6.43622 11.2789 6.40421C12.5613 6.37219 13.807 6.83432 14.7582 7.69499L14.9392 7.86699L17.0602 9.98999C17.2396 10.17 17.3437 10.4114 17.3515 10.6654C17.3592 10.9193 17.27 11.1667 17.102 11.3573C16.9339 11.5478 16.6997 11.6673 16.4468 11.6914C16.1938 11.7155 15.9412 11.6424 15.7402 11.487L15.6462 11.404L13.5252 9.28299C12.9742 8.73555 12.2323 8.42317 11.4557 8.41157C10.679 8.39996 9.92813 8.69004 9.36099 9.22078C8.79385 9.75152 8.45467 10.4815 8.4148 11.2573C8.37494 12.033 8.63749 12.7939 9.14723 13.38L9.28223 13.524L12.1112 16.353C12.6738 16.9154 13.4367 17.2314 14.2322 17.2314C15.0277 17.2314 15.7906 16.9154 16.3532 16.353C16.4461 16.2601 16.5563 16.1864 16.6776 16.1361C16.799 16.0858 16.929 16.0598 17.0604 16.0598C17.1917 16.0597 17.3218 16.0856 17.4432 16.1358C17.5645 16.186 17.6748 16.2596 17.7677 16.3525C17.8606 16.4453 17.9344 16.5556 17.9847 16.6769C18.035 16.7982 18.0609 16.9283 18.0609 17.0596C18.061 17.191 18.0352 17.3211 17.9849 17.4424C17.9347 17.5638 17.8611 17.6741 17.7682 17.767C16.8611 18.6741 15.64 19.1978 14.3576 19.2298C13.0752 19.2618 11.8295 18.7997 10.8782 17.939L10.6962 17.767L7.86823 14.938C6.93087 14.0004 6.4043 12.7288 6.4043 11.403C6.4043 10.0772 6.93087 8.80463 7.86823 7.86699Z" fill="#374151"/>
</g>
<defs>
<clipPath id="clip0_86_2538">
<rect width="24" height="24" fill="white" transform="translate(4 4)"/>
</clipPath>
</defs>
</svg>
