<svg width="40" height="40" viewBox="0 0 40 40" fill="none" xmlns="http://www.w3.org/2000/svg">
<path d="M18.3431 10.2684C23.9907 10.2684 28.6114 5.64761 28.6114 0H10.2684C4.76079 0 0.280047 4.34072 0 9.80163V10.2684V29.6849C0 35.3792 4.5741 39.9533 10.2684 39.9533V10.2684H18.3431Z" fill="#1A56DB"/>
<path d="M39.0197 10.2684C39.0197 4.5741 34.4456 0 28.7513 0V29.7316H20.5833C14.9357 29.7316 10.3149 34.3524 10.3149 40H28.658C34.1656 40 38.6463 35.6593 38.9264 30.1984H39.0197V10.2684Z" fill="#1A56DB"/>
<path d="M20.2099 24.3174H24.0372V10.2684H23.9905C23.9905 12.9288 21.7968 15.1225 19.1364 15.1225H15.3091V29.1715C15.3091 29.1715 15.3091 29.1715 15.3558 29.1715C15.3558 26.4644 17.5028 24.3174 20.2099 24.3174Z" fill="#1A56DB"/>
</svg>
