<svg width="154" height="100" viewBox="0 0 154 100" fill="none" xmlns="http://www.w3.org/2000/svg">
<g clip-path="url(#clip0_668_42454)">
<path d="M1.68 42.2403C1.55556 42.2403 1.43111 42.1151 1.43111 41.9899L0 25.2816C0 25.1564 0.124444 25.0312 0.248889 25.0312C0.373333 25.0312 0.497778 25.1564 0.56 25.2816L1.92889 41.9899C1.92889 42.1151 1.80444 42.2403 1.68 42.2403Z" fill="#D1D5DB"/>
<path d="M2.48889 52.1901C2.36444 52.1901 2.24 52.065 2.24 51.9398L1.80444 46.871C1.80444 46.7458 1.86667 46.6207 2.05333 46.5581C2.17778 46.5581 2.30222 46.6207 2.36444 46.8084L2.8 51.8773C2.73778 52.065 2.61333 52.1901 2.48889 52.1901Z" fill="#D1D5DB"/>
<path d="M142.427 99.7498H14C10.64 99.6872 7.90221 97.1215 7.52888 93.7423L0.311101 6.25792C-1.03385e-05 3.25416 2.17777 0.625879 5.10221 0.312988C5.28888 0.312988 5.53777 0.312988 5.72443 0.312988H134.213C137.573 0.375567 140.311 2.94127 140.684 6.3205L147.902 93.8049C148.213 96.8086 146.036 99.4995 143.049 99.8124C142.862 99.7498 142.676 99.7498 142.427 99.7498Z" fill="white"/>
<path d="M142.427 100H13.9999C10.5154 99.9374 7.65322 97.2465 7.27989 93.8047L0.0621133 6.3204C-0.124553 4.69337 0.435447 3.06633 1.49322 1.87735C2.551 0.68836 4.10656 0 5.72434 0H134.213C137.698 0.0625782 140.622 2.75344 140.933 6.25782L148.151 93.7422C148.462 96.8711 146.222 99.6871 143.111 100C142.862 100 142.675 100 142.427 100ZM5.72434 0.500626C2.92434 0.500626 0.559891 2.75344 0.497669 5.63204C0.497669 5.81977 0.497669 6.07009 0.497669 6.25782L7.71545 93.7422C8.02656 96.9962 10.7021 99.4368 13.9377 99.4994H142.427C145.289 99.5619 147.653 97.2466 147.653 94.368C147.653 94.1802 147.653 93.9925 147.653 93.7422L140.435 6.3204C140.124 3.06633 137.449 0.625782 134.213 0.563204H5.72434V0.500626Z" fill="#D1D5DB"/>
<path d="M134.213 0.250488H5.72434C2.73767 0.250488 0.311002 2.62846 0.248779 5.63222C0.248779 5.81995 0.248779 6.07026 0.248779 6.258H140.622C140.311 2.87877 137.573 0.313067 134.213 0.250488Z" fill="#D1D5DB"/>
<path d="M8.77332 3.25408C8.83554 3.87987 8.39998 4.44307 7.71554 4.56823C7.65332 4.56823 7.59109 4.56823 7.59109 4.56823C6.84443 4.56823 6.28443 4.00502 6.2222 3.25408C6.15998 2.6283 6.59554 2.00252 7.27998 1.93994C7.3422 1.93994 7.3422 1.93994 7.40443 1.93994C8.08887 2.00252 8.71109 2.56572 8.77332 3.25408Z" fill="white"/>
<path d="M13.9999 3.25408C14.0621 3.87987 13.6265 4.44307 12.9421 4.56823C12.8799 4.56823 12.8177 4.56823 12.8177 4.56823C12.1332 4.56823 11.511 4.00502 11.4488 3.25408C11.3865 2.6283 11.8221 2.00252 12.5065 1.93994C12.5688 1.93994 12.5688 1.93994 12.631 1.93994C13.3154 2.00252 13.9377 2.56572 13.9999 3.25408Z" fill="white"/>
<path d="M19.2267 3.25408C19.2889 3.87987 18.8534 4.44307 18.1689 4.56823C18.1067 4.56823 18.0445 4.56823 18.0445 4.56823C17.2978 4.56823 16.7378 4.00502 16.6756 3.25408C16.6134 2.6283 17.0489 2.00252 17.7334 1.93994C17.7956 1.93994 17.7956 1.93994 17.8578 1.93994C18.5422 2.00252 19.1645 2.56572 19.2267 3.25408Z" fill="white"/>
<path d="M131.289 88.2976H23.2711C20.5955 88.2351 18.4178 86.2325 18.1066 83.5417L13.0666 22.5279C12.8178 20.1499 14.56 18.0223 16.9244 17.772C17.1111 17.772 17.2355 17.772 17.4222 17.772H125.502C128.178 17.8346 130.356 19.8371 130.604 22.5279L135.644 83.5417C135.893 85.9197 134.151 88.0473 131.787 88.235C131.6 88.235 131.476 88.2976 131.289 88.2976Z" fill="#F0F0F0"/>
<path opacity="0.1" d="M97.8755 28.4105L64.3999 68.9612C61.0399 73.0288 61.5999 79.0988 65.6444 82.5406C66.8266 83.5419 68.2577 84.2303 69.751 84.5431L124.071 96.3704C129.235 97.4968 134.338 94.1802 135.458 88.9862C135.893 87.1088 135.707 85.1689 134.96 83.3542L114.115 30.9762C112.187 26.0325 106.587 23.6545 101.671 25.5945C100.24 26.2202 98.871 27.1589 97.8755 28.4105Z" fill="#263238"/>
<path opacity="0.1" d="M23.3334 34.1051L11.6979 65.7071C10.5779 68.836 12.1957 72.3404 15.3068 73.5294C16.1779 73.8423 17.049 73.9675 17.9823 73.8423L52.0179 70.4631C55.3157 70.1502 57.8045 67.1464 57.4312 63.8298C57.3068 62.6408 56.8712 61.5144 56.1245 60.6383L33.7245 32.4155C31.609 29.7872 27.8134 29.3492 25.2001 31.4769C24.3912 32.1652 23.769 33.0413 23.3334 34.1051Z" fill="#263238"/>
<path d="M109.449 18.2101L78.1511 63.8922C74.9778 68.523 76.16 74.7808 80.7022 77.9723C82.0089 78.911 83.5022 79.4742 85.12 79.6619L142.676 87.3591C148.213 88.11 153.253 84.2301 154 78.6607C154.249 76.6582 153.938 74.6557 153.067 72.8409L126.809 19.4617C124.32 14.4554 118.284 12.3903 113.307 14.8935C111.689 15.6444 110.382 16.7708 109.449 18.2101Z" fill="#D1D5DB"/>
<path d="M86.489 75.5946C84.3734 75.2817 82.569 73.9675 81.6357 72.0276C80.7023 70.2128 80.7646 67.96 81.9468 66.2704L113.245 20.4631C114.427 18.7735 116.418 17.96 118.409 18.2729C120.525 18.5858 122.329 19.8999 123.262 21.8399L149.52 75.4068C150.453 77.2216 150.391 79.4744 149.209 81.164C148.027 82.8536 146.036 83.6671 144.045 83.3543L86.489 75.5946Z" fill="white"/>
<path d="M115.733 34.4807L119.404 34.9814C121.769 35.2942 123.511 37.4219 123.449 39.7999L123.2 44.6184C123.2 44.8061 123.2 44.9939 123.138 45.119L120.524 59.5746C120.151 61.6397 118.16 63.0164 116.107 62.7035C113.929 62.3906 112.249 60.6384 112.062 58.3856L111.004 43.4294C111.004 43.2417 111.004 43.0539 111.004 42.9288L111.253 38.1103C111.378 35.9826 113.182 34.293 115.298 34.4182C115.484 34.4182 115.609 34.4182 115.733 34.4807ZM115.484 66.7085L116.48 66.8337C118.596 67.1466 120.151 68.9613 120.089 71.1516C120.027 73.0915 118.409 74.5934 116.48 74.4682C116.356 74.4682 116.231 74.4682 116.107 74.4056L115.111 74.2805C112.996 73.9676 111.44 72.1528 111.502 69.9626C111.564 68.0227 113.182 66.5834 115.111 66.6459C115.173 66.7085 115.298 66.7085 115.484 66.7085Z" fill="#D1D5DB"/>
<path d="M35.4043 25.2189L26.8177 57.9473C25.9465 61.2014 27.8754 64.518 31.111 65.3941C31.9821 65.6444 32.9154 65.6444 33.7866 65.4567L67.1377 58.9486C70.4354 58.2602 72.551 55.0687 71.8666 51.8146C71.6177 50.6882 71.1199 49.687 70.3732 48.8735L45.671 22.5906C43.3688 20.1501 39.5732 20.0249 37.0843 22.3403C36.2754 23.0912 35.6532 24.0925 35.4043 25.2189Z" fill="#D1D5DB"/>
<path d="M33.7244 62.8285C32.48 63.0788 31.2356 62.6408 30.3644 61.7021C29.4933 60.826 29.12 59.5119 29.4311 58.2603L38.0178 25.4067C38.3289 24.2177 39.2622 23.3416 40.4444 23.1539C41.6889 22.9036 42.9333 23.3416 43.8044 24.2803L68.6311 50.5632C69.5022 51.4393 69.8756 52.7534 69.5644 54.005C69.2533 55.194 68.32 56.0701 67.1378 56.2578L33.7244 62.8285Z" fill="white"/>
<path d="M42.1244 33.1041L44.2399 32.6661C45.671 32.4157 47.0399 33.2918 47.4132 34.7311L48.1599 37.6097C48.1599 37.7349 48.2221 37.7975 48.2221 37.9226L49.591 46.9339C49.8399 48.1855 48.9688 49.3744 47.7244 49.6248C46.4177 49.8125 45.1732 49.1241 44.6755 47.8726L41.2532 39.2994C41.191 39.1742 41.191 39.1116 41.1288 38.9865L40.3199 36.1079C39.9466 34.8563 40.631 33.5422 41.8132 33.1667C41.9377 33.1667 41.9999 33.1667 42.1244 33.1041ZM48.0977 52.0653L48.6577 51.9402C49.9021 51.6898 51.1466 52.5034 51.5199 53.7549C51.8932 54.8813 51.271 56.0703 50.151 56.3832C50.0888 56.3832 50.0266 56.4458 49.9021 56.4458L49.3421 56.5709C48.0977 56.8213 46.8532 56.0077 46.4799 54.7562C46.1066 53.6298 46.7288 52.4408 47.8488 52.1279C47.9732 52.1279 48.0355 52.0653 48.0977 52.0653Z" fill="#D1D5DB"/>
</g>
<defs>
<clipPath id="clip0_668_42454">
<rect width="154" height="100" fill="white"/>
</clipPath>
</defs>
</svg>
