<svg width="306" height="306" viewBox="0 0 306 306" fill="none" xmlns="http://www.w3.org/2000/svg">
<path d="M306 234.029H0V234.182H306V234.029Z" fill="#EBEBEB"/>
<path d="M275.339 243.876H255.069V244.029H275.339V243.876Z" fill="#EBEBEB"/>
<path d="M202.706 245.541H197.388V245.694H202.706V245.541Z" fill="#EBEBEB"/>
<path d="M254.457 238.197H242.713V238.35H254.457V238.197Z" fill="#EBEBEB"/>
<path d="M58.5378 239.225H32.1055V239.378H58.5378V239.225Z" fill="#EBEBEB"/>
<path d="M67.8647 239.225H63.9907V239.378H67.8647V239.225Z" fill="#EBEBEB"/>
<path d="M137.792 241.807H80.4595V241.96H137.792V241.807Z" fill="#EBEBEB"/>
<path d="M145.044 206.734H26.8727C25.9469 206.732 25.0597 206.363 24.4056 205.708C23.7516 205.053 23.3843 204.165 23.3843 203.239V37.1238C23.3923 36.2034 23.7632 35.3233 24.4164 34.6747C25.0695 34.0262 25.9522 33.6615 26.8727 33.6599H145.044C145.971 33.6599 146.859 34.0281 147.515 34.6834C148.17 35.3388 148.538 36.2276 148.538 37.1544V203.239C148.538 204.166 148.17 205.055 147.515 205.71C146.859 206.365 145.971 206.734 145.044 206.734ZM26.8727 33.7823C25.9875 33.7839 25.1392 34.1367 24.5138 34.7632C23.8885 35.3897 23.5373 36.2387 23.5373 37.1238V203.239C23.5373 204.124 23.8885 204.973 24.5138 205.6C25.1392 206.226 25.9875 206.579 26.8727 206.581H145.044C145.929 206.579 146.778 206.226 147.405 205.6C148.031 204.974 148.384 204.125 148.385 203.239V37.1238C148.384 36.2381 148.031 35.3891 147.405 34.7628C146.778 34.1365 145.929 33.7839 145.044 33.7823H26.8727Z" fill="#EBEBEB"/>
<path d="M277.426 206.734H159.248C158.322 206.732 157.434 206.363 156.779 205.708C156.124 205.053 155.756 204.165 155.754 203.239V37.1238C155.764 36.2028 156.136 35.3228 156.79 34.6744C157.444 34.026 158.327 33.6615 159.248 33.6599H277.426C278.345 33.6631 279.226 34.0285 279.878 34.6769C280.53 35.3253 280.9 36.2045 280.908 37.1238V203.239C280.908 204.164 280.541 205.051 279.889 205.706C279.236 206.361 278.35 206.73 277.426 206.734ZM159.248 33.7823C158.363 33.7839 157.514 34.1365 156.887 34.7628C156.261 35.3891 155.909 36.2381 155.907 37.1238V203.239C155.909 204.125 156.261 204.974 156.887 205.6C157.514 206.226 158.363 206.579 159.248 206.581H277.426C278.311 206.579 279.16 206.226 279.787 205.6C280.413 204.974 280.766 204.125 280.767 203.239V37.1238C280.766 36.2381 280.413 35.3891 279.787 34.7628C279.16 34.1365 278.311 33.7839 277.426 33.7823H159.248Z" fill="#EBEBEB"/>
<path d="M131.806 46.1081L132.32 47.1546C132.351 47.2159 132.395 47.2686 132.451 47.3082C132.506 47.3477 132.571 47.3728 132.639 47.3811L133.795 47.5524C133.872 47.5642 133.944 47.5971 134.002 47.6474C134.061 47.6978 134.105 47.7635 134.128 47.8373C134.152 47.911 134.154 47.9899 134.136 48.065C134.117 48.1401 134.077 48.2084 134.022 48.2623L133.19 49.0824C133.14 49.1288 133.104 49.1866 133.082 49.2507C133.061 49.3147 133.056 49.3831 133.067 49.4496L133.263 50.6002C133.278 50.678 133.27 50.7584 133.241 50.8319C133.211 50.9054 133.161 50.9691 133.097 51.0153C133.033 51.0616 132.957 51.0886 132.878 51.0931C132.799 51.0976 132.72 51.0795 132.651 51.0408L131.617 50.4961C131.557 50.466 131.491 50.4503 131.424 50.4503C131.357 50.4503 131.291 50.466 131.231 50.4961L130.191 51.0408C130.122 51.0795 130.043 51.0976 129.964 51.0931C129.885 51.0886 129.809 51.0616 129.744 51.0153C129.68 50.9691 129.63 50.9054 129.601 50.8319C129.572 50.7584 129.564 50.678 129.579 50.6002L129.781 49.4496C129.791 49.3831 129.785 49.3152 129.763 49.2514C129.742 49.1876 129.706 49.1297 129.658 49.0824L128.82 48.2623C128.764 48.208 128.725 48.1392 128.706 48.0636C128.688 47.9881 128.691 47.9089 128.715 47.835C128.739 47.761 128.784 47.6954 128.843 47.6454C128.903 47.5955 128.975 47.5633 129.052 47.5524L130.209 47.3811C130.276 47.3717 130.341 47.3463 130.396 47.3068C130.451 47.2674 130.496 47.2152 130.527 47.1546L131.041 46.1081C131.075 46.0354 131.129 45.9738 131.197 45.9307C131.265 45.8876 131.344 45.8647 131.424 45.8647C131.504 45.8647 131.583 45.8876 131.651 45.9307C131.718 45.9738 131.772 46.0354 131.806 46.1081Z" fill="#F5F5F5"/>
<path d="M55.6062 132.308L56.1264 133.361C56.1563 133.421 56.2003 133.473 56.2546 133.512C56.309 133.552 56.3721 133.577 56.4385 133.587L57.5952 133.759C57.6722 133.769 57.7446 133.802 57.8043 133.852C57.8639 133.902 57.9083 133.967 57.9325 134.041C57.9568 134.115 57.9598 134.194 57.9412 134.27C57.9227 134.345 57.8834 134.414 57.8277 134.469L56.9893 135.283C56.9412 135.331 56.9056 135.39 56.8853 135.455C56.8651 135.52 56.8609 135.589 56.873 135.656L57.0688 136.806C57.0836 136.884 57.0758 136.965 57.0464 137.038C57.0171 137.112 56.9674 137.175 56.9031 137.222C56.8389 137.268 56.7627 137.295 56.6837 137.299C56.6046 137.304 56.526 137.286 56.4568 137.247L55.4226 136.702C55.3617 136.672 55.2947 136.656 55.2267 136.656C55.1588 136.656 55.0918 136.672 55.0309 136.702L53.9966 137.247C53.9275 137.286 53.8488 137.304 53.7698 137.299C53.6907 137.295 53.6146 137.268 53.5503 137.222C53.4861 137.175 53.4364 137.112 53.407 137.038C53.3777 136.965 53.3699 136.884 53.3846 136.806L53.5804 135.656C53.5926 135.589 53.5884 135.52 53.5681 135.455C53.5479 135.39 53.5122 135.331 53.4642 135.283L52.6318 134.469C52.5762 134.414 52.5369 134.345 52.5183 134.27C52.4998 134.194 52.5028 134.115 52.527 134.041C52.5512 133.967 52.5957 133.902 52.6553 133.852C52.715 133.802 52.7874 133.769 52.8644 133.759L54.0211 133.587C54.0875 133.577 54.1506 133.552 54.205 133.512C54.2593 133.473 54.3033 133.421 54.3332 133.361L54.8534 132.308C54.8871 132.237 54.9403 132.177 55.007 132.134C55.0736 132.092 55.1509 132.07 55.2298 132.07C55.3087 132.07 55.386 132.092 55.4526 132.134C55.5192 132.177 55.5725 132.237 55.6062 132.308Z" fill="#F0F0F0"/>
<path d="M45.9978 74.4742L46.5119 75.5207C46.5415 75.5816 46.5852 75.6346 46.6396 75.6751C46.6939 75.7156 46.7572 75.7424 46.824 75.7532L47.9807 75.9185C48.0577 75.9306 48.1298 75.9638 48.1891 76.0144C48.2484 76.065 48.2925 76.131 48.3166 76.2052C48.3407 76.2793 48.3438 76.3587 48.3255 76.4344C48.3073 76.5102 48.2684 76.5795 48.2133 76.6345L47.3748 77.4485C47.3274 77.4961 47.2917 77.554 47.2705 77.6177C47.2492 77.6814 47.2431 77.7492 47.2524 77.8157L47.4544 78.9724C47.4691 79.0502 47.4613 79.1305 47.432 79.2041C47.4026 79.2776 47.3529 79.3412 47.2887 79.3875C47.2244 79.4338 47.1483 79.4607 47.0692 79.4653C46.9902 79.4698 46.9115 79.4516 46.8424 79.413L45.8081 78.8683C45.7482 78.8351 45.6808 78.8177 45.6123 78.8177C45.5437 78.8177 45.4763 78.8351 45.4164 78.8683L44.3821 79.413C44.313 79.4516 44.2343 79.4698 44.1553 79.4653C44.0762 79.4607 44.0001 79.4338 43.9359 79.3875C43.8716 79.3412 43.8219 79.2776 43.7925 79.2041C43.7632 79.1305 43.7554 79.0502 43.7701 78.9724L43.966 77.8157C43.9785 77.7491 43.9739 77.6805 43.9525 77.6162C43.931 77.5519 43.8936 77.4942 43.8436 77.4485L43.0113 76.6345C42.9539 76.5809 42.9129 76.5121 42.893 76.4361C42.8731 76.3601 42.8751 76.28 42.8988 76.2051C42.9224 76.1302 42.9668 76.0636 43.0268 76.0128C43.0868 75.9621 43.1599 75.9294 43.2377 75.9185L44.3944 75.7532C44.462 75.7423 44.5261 75.7155 44.5814 75.6751C44.6367 75.6347 44.6817 75.5818 44.7126 75.5207L45.2267 74.4742C45.26 74.3997 45.3141 74.3365 45.3825 74.2921C45.4509 74.2477 45.5307 74.2241 45.6123 74.2241C45.6938 74.2241 45.7736 74.2477 45.842 74.2921C45.9105 74.3365 45.9646 74.3997 45.9978 74.4742Z" fill="#F0F0F0"/>
<path d="M92.369 100.778L92.675 101.39C92.6938 101.426 92.7208 101.457 92.7538 101.48C92.7867 101.503 92.8248 101.519 92.8647 101.525L93.5563 101.623C93.6023 101.63 93.6454 101.65 93.6807 101.68C93.716 101.711 93.7422 101.751 93.7561 101.795C93.7701 101.84 93.7714 101.887 93.7599 101.932C93.7484 101.977 93.7245 102.019 93.6909 102.051L93.1952 102.541C93.1657 102.568 93.1435 102.603 93.1307 102.641C93.1179 102.68 93.1148 102.721 93.1218 102.761L93.2381 103.446C93.2478 103.492 93.244 103.541 93.2271 103.585C93.2102 103.629 93.1809 103.667 93.1427 103.695C93.1046 103.723 93.0592 103.739 93.012 103.741C92.9649 103.744 92.918 103.733 92.877 103.709L92.265 103.385C92.2289 103.367 92.1891 103.357 92.1487 103.357C92.1083 103.357 92.0685 103.367 92.0324 103.385L91.4204 103.709C91.3794 103.733 91.3325 103.744 91.2854 103.741C91.2382 103.739 91.1928 103.723 91.1547 103.695C91.1165 103.667 91.0872 103.629 91.0703 103.585C91.0534 103.541 91.0496 103.492 91.0593 103.446L91.1756 102.761C91.1826 102.721 91.1795 102.68 91.1667 102.641C91.1539 102.603 91.1317 102.568 91.1022 102.541L90.6003 102.051C90.5667 102.018 90.5429 101.977 90.5317 101.931C90.5204 101.885 90.5223 101.837 90.537 101.793C90.5516 101.748 90.5785 101.708 90.6146 101.678C90.6507 101.648 90.6945 101.629 90.7411 101.623L91.4327 101.525C91.4726 101.519 91.5107 101.503 91.5436 101.48C91.5766 101.457 91.6036 101.426 91.6224 101.39L91.9284 100.778C91.9512 100.74 91.9835 100.708 92.0221 100.687C92.0607 100.665 92.1043 100.653 92.1487 100.653C92.1931 100.653 92.2367 100.665 92.2753 100.687C92.3139 100.708 92.3462 100.74 92.369 100.778Z" fill="#F0F0F0"/>
<path d="M73.6113 180.968L73.9173 181.58C73.9357 181.617 73.9625 181.649 73.9954 181.673C74.0284 181.698 74.0666 181.714 74.107 181.721L74.7986 181.819C74.8451 181.825 74.8889 181.845 74.925 181.875C74.9611 181.905 74.988 181.945 75.0027 181.989C75.0174 182.034 75.0192 182.082 75.008 182.127C74.9968 182.173 74.973 182.215 74.9393 182.247L74.4375 182.731C74.4079 182.76 74.3857 182.796 74.373 182.835C74.3602 182.875 74.3571 182.917 74.364 182.957L74.4864 183.643C74.4945 183.689 74.4893 183.737 74.4714 183.781C74.4535 183.824 74.4237 183.862 74.3853 183.89C74.347 183.917 74.3017 183.933 74.2547 183.936C74.2076 183.939 74.1607 183.929 74.1192 183.906L73.5072 183.582C73.4712 183.563 73.4314 183.554 73.3909 183.554C73.3505 183.554 73.3107 183.563 73.2747 183.582L72.6627 183.906C72.6214 183.927 72.5752 183.936 72.5292 183.932C72.4831 183.928 72.439 183.912 72.4016 183.885C72.3643 183.858 72.3352 183.821 72.3175 183.778C72.2999 183.735 72.2944 183.688 72.3016 183.643L72.4179 182.957C72.4256 182.917 72.4235 182.875 72.4118 182.836C72.4001 182.797 72.3791 182.761 72.3506 182.731L71.8487 182.247C71.8151 182.215 71.7913 182.174 71.7797 182.129C71.7682 182.084 71.7695 182.036 71.7835 181.992C71.7975 181.947 71.8236 181.907 71.8589 181.877C71.8942 181.846 71.9373 181.826 71.9834 181.819L72.6749 181.721C72.7157 181.715 72.7543 181.699 72.7874 181.675C72.8205 181.65 72.847 181.618 72.8646 181.58L73.1768 180.968C73.1988 180.93 73.2305 180.899 73.2686 180.877C73.3067 180.855 73.35 180.843 73.394 180.843C73.438 180.843 73.4813 180.855 73.5194 180.877C73.5576 180.899 73.5892 180.93 73.6113 180.968Z" fill="#F5F5F5"/>
<path d="M265.853 47.0628L266.159 47.6748C266.177 47.7116 266.203 47.7432 266.236 47.7668C266.27 47.7904 266.308 47.805 266.349 47.8094L267.04 47.9135C267.087 47.9199 267.131 47.9392 267.167 47.9693C267.203 47.9994 267.23 48.0391 267.244 48.0837C267.259 48.1284 267.261 48.1762 267.25 48.2219C267.239 48.2675 267.215 48.3091 267.181 48.3419L266.679 48.8254C266.65 48.8534 266.628 48.8881 266.615 48.9265C266.603 48.9649 266.599 49.0058 266.606 49.0457L266.728 49.7372C266.736 49.7837 266.731 49.8315 266.713 49.8751C266.695 49.9188 266.665 49.9565 266.627 49.984C266.589 50.0114 266.543 50.0275 266.496 50.0304C266.449 50.0334 266.402 50.0229 266.361 50.0004L265.749 49.676C265.713 49.6578 265.673 49.6482 265.633 49.6482C265.592 49.6482 265.552 49.6578 265.516 49.676L264.904 50.0004C264.863 50.0213 264.817 50.0303 264.771 50.0266C264.725 50.0229 264.681 50.0065 264.643 49.9793C264.606 49.952 264.577 49.915 264.559 49.8723C264.542 49.8296 264.536 49.7829 264.543 49.7372L264.66 49.0457C264.667 49.0062 264.664 48.9657 264.653 48.9273C264.641 48.889 264.62 48.854 264.592 48.8254L264.078 48.348C264.045 48.3156 264.021 48.2745 264.009 48.2293C263.998 48.1841 263.999 48.1366 264.013 48.0921C264.027 48.0477 264.053 48.0079 264.088 47.9775C264.124 47.947 264.167 47.9269 264.213 47.9196L264.904 47.8156C264.945 47.8117 264.984 47.7973 265.017 47.7737C265.051 47.75 265.077 47.718 265.094 47.6809L265.406 47.0689C265.425 47.0256 265.456 46.9885 265.495 46.9623C265.534 46.9361 265.58 46.9218 265.628 46.9212C265.675 46.9205 265.721 46.9335 265.761 46.9587C265.801 46.9838 265.833 47.02 265.853 47.0628Z" fill="#F5F5F5"/>
<path d="M260.534 162.565L261.067 163.649C261.097 163.712 261.143 163.766 261.199 163.806C261.256 163.847 261.322 163.873 261.391 163.881L262.615 164.059C262.695 164.069 262.77 164.103 262.832 164.154C262.894 164.206 262.941 164.274 262.965 164.351C262.99 164.428 262.993 164.51 262.973 164.588C262.954 164.666 262.912 164.737 262.854 164.793L261.936 165.638C261.887 165.688 261.85 165.749 261.829 165.816C261.807 165.883 261.802 165.954 261.813 166.023L262.022 167.247C262.032 167.324 262.021 167.403 261.991 167.474C261.961 167.546 261.912 167.608 261.849 167.655C261.787 167.701 261.713 167.729 261.636 167.737C261.558 167.745 261.48 167.733 261.41 167.7L260.339 167.137C260.276 167.104 260.207 167.086 260.137 167.086C260.066 167.086 259.997 167.104 259.935 167.137L258.876 167.688C258.805 167.723 258.727 167.737 258.648 167.73C258.57 167.723 258.495 167.695 258.432 167.648C258.369 167.601 258.32 167.538 258.29 167.465C258.26 167.392 258.251 167.313 258.264 167.235L258.466 166.011C258.479 165.942 258.474 165.87 258.453 165.803C258.432 165.736 258.394 165.675 258.343 165.625L257.474 164.781C257.418 164.724 257.379 164.652 257.361 164.574C257.343 164.496 257.347 164.415 257.372 164.339C257.397 164.263 257.443 164.195 257.504 164.144C257.566 164.092 257.64 164.058 257.719 164.046L258.913 163.869C258.982 163.861 259.048 163.835 259.104 163.794C259.161 163.754 259.207 163.699 259.237 163.636L259.776 162.553C259.814 162.486 259.87 162.431 259.938 162.393C260.005 162.355 260.081 162.335 260.159 162.336C260.236 162.338 260.312 162.36 260.378 162.4C260.444 162.44 260.498 162.497 260.534 162.565Z" fill="#F0F0F0"/>
<path d="M194.977 61.1326C194.977 61.2936 194.929 61.4509 194.84 61.5848C194.75 61.7186 194.623 61.823 194.475 61.8846C194.326 61.9462 194.162 61.9623 194.004 61.9309C193.846 61.8995 193.701 61.822 193.588 61.7081C193.474 61.5943 193.396 61.4493 193.365 61.2914C193.333 61.1335 193.349 60.9698 193.411 60.8211C193.473 60.6723 193.577 60.5452 193.711 60.4558C193.845 60.3663 194.002 60.3186 194.163 60.3186C194.379 60.3186 194.586 60.4044 194.739 60.557C194.891 60.7097 194.977 60.9167 194.977 61.1326Z" fill="#F0F0F0"/>
<path d="M218.337 218.894C218.337 219.055 218.289 219.212 218.2 219.346C218.11 219.48 217.983 219.584 217.834 219.646C217.686 219.708 217.522 219.724 217.364 219.692C217.206 219.661 217.061 219.583 216.947 219.47C216.834 219.356 216.756 219.211 216.725 219.053C216.693 218.895 216.709 218.731 216.771 218.583C216.833 218.434 216.937 218.307 217.071 218.217C217.205 218.128 217.362 218.08 217.523 218.08C217.63 218.079 217.736 218.1 217.835 218.14C217.935 218.181 218.025 218.241 218.1 218.317C218.176 218.392 218.236 218.482 218.277 218.582C218.317 218.681 218.338 218.787 218.337 218.894Z" fill="#F5F5F5"/>
<path d="M81.2429 50.9857C81.2429 51.6744 81.0386 52.3477 80.656 52.9203C80.2734 53.493 79.7295 53.9393 79.0932 54.2029C78.4569 54.4665 77.7567 54.5354 77.0812 54.4011C76.4057 54.2667 75.7853 53.935 75.2983 53.448C74.8113 52.961 74.4796 52.3406 74.3452 51.6651C74.2109 50.9896 74.2798 50.2894 74.5434 49.6531C74.807 49.0168 75.2533 48.4729 75.8259 48.0903C76.3986 47.7077 77.0719 47.5034 77.7606 47.5034C78.6842 47.5034 79.5699 47.8703 80.2229 48.5234C80.876 49.1764 81.2429 50.0621 81.2429 50.9857Z" fill="#F0F0F0"/>
<path d="M114.193 73.9969C116.295 74.3662 118.425 74.5485 120.558 74.5416C119.723 75.5177 118.649 76.2608 117.441 76.6985C116.234 77.1361 114.933 77.2534 113.667 77.0389C112.4 76.8245 111.211 76.2855 110.214 75.4746C109.218 74.6637 108.449 73.6085 107.981 72.4119C110.002 73.12 112.08 73.6504 114.193 73.9969Z" fill="#F5F5F5"/>
<path d="M115.276 67.5708C112.854 67.1369 110.391 66.9646 107.932 67.0567C108.545 65.4464 109.698 64.0987 111.194 63.2435C112.69 62.3884 114.436 62.0789 116.135 62.3678C117.834 62.6567 119.379 63.5261 120.508 64.8277C121.638 66.1292 122.28 67.7823 122.326 69.5047C120.052 68.6103 117.688 67.9619 115.276 67.5708Z" fill="#F5F5F5"/>
<path d="M126.459 71.6435C126.696 70.2437 121.719 68.2358 115.344 67.1586C108.968 66.0814 103.608 66.3429 103.372 67.7426C103.135 69.1424 108.112 71.1503 114.487 72.2275C120.863 73.3047 126.223 73.0433 126.459 71.6435Z" fill="#F5F5F5"/>
<path d="M265.388 124.113C262.539 129.817 258.594 134.904 253.779 139.083C248.963 143.262 243.372 146.452 237.324 148.469C231.276 150.487 224.889 151.293 218.53 150.842C212.17 150.39 205.961 148.691 200.258 145.839C199.267 145.35 198.306 144.83 197.388 144.279C205.951 141.103 213.675 136.014 219.972 129.4C226.27 122.785 230.973 114.82 233.724 106.111C236.475 97.4028 237.201 88.1811 235.846 79.1495C234.491 70.1178 231.092 61.5148 225.907 53.9966C233.822 54.6465 241.457 57.2269 248.143 61.512C254.829 65.7971 260.362 71.6561 264.258 78.5759C268.155 85.4957 270.295 93.2652 270.492 101.204C270.689 109.143 268.936 117.009 265.388 124.113Z" fill="#F5F5F5"/>
<path d="M243.185 66.9222C244.491 67.8868 245.567 69.1283 246.338 70.5576C247.108 71.987 247.552 73.569 247.64 75.1903C245.945 72.8483 243.897 70.7836 241.569 69.0703C239.25 67.349 236.683 65.9911 233.956 65.0434C235.537 64.6549 237.185 64.6219 238.781 64.9468C240.377 65.2716 241.881 65.9463 243.185 66.9222Z" fill="#F0F0F0"/>
<path d="M230.926 140.509C229.57 141.404 228.032 141.987 226.424 142.218C224.816 142.448 223.177 142.32 221.624 141.843C224.398 141.056 227.032 139.842 229.433 138.245C231.849 136.662 234.01 134.72 235.84 132.486C235.664 134.103 235.132 135.661 234.283 137.048C233.433 138.436 232.287 139.617 230.926 140.509Z" fill="#F0F0F0"/>
<path d="M247.652 94.303C248.347 95.7713 248.708 97.3756 248.708 99.0001C248.708 100.625 248.347 102.229 247.652 103.697C247.272 100.838 246.446 98.0566 245.204 95.4536C243.982 92.8394 242.368 90.4269 240.418 88.2993C241.992 88.7044 243.457 89.4528 244.707 90.4908C245.958 91.5288 246.964 92.8306 247.652 94.303Z" fill="#F0F0F0"/>
<path d="M255.541 127.626C254.522 128.893 253.237 129.918 251.775 130.629C250.314 131.34 248.714 131.719 247.089 131.739C249.491 130.144 251.628 128.182 253.423 125.925C255.241 123.681 256.706 121.174 257.768 118.489C258.094 120.082 258.064 121.728 257.679 123.308C257.293 124.887 256.563 126.362 255.541 127.626Z" fill="#F0F0F0"/>
<path d="M152.661 279.856C218.195 279.856 271.321 276.754 271.321 272.928C271.321 269.102 218.195 266 152.661 266C87.1262 266 34 269.102 34 272.928C34 276.754 87.1262 279.856 152.661 279.856Z" fill="#F5F5F5"/>
<path d="M158.765 63.9398L158.267 63.5481C160.51 60.6997 162.867 58.0222 165.274 55.5156L165.722 55.9571C163.33 58.4424 160.987 61.1341 158.765 63.9398Z" fill="#407BFF"/>
<path d="M156.105 66.2785L153.808 69.1741L154.299 69.5635L156.596 66.6679L156.105 66.2785Z" fill="#407BFF"/>
<path d="M205.515 96.974C220.989 72.1003 223.096 47.5897 211.831 39.6569C200.565 31.7241 178.198 41.9641 159.99 64.9152L107.957 130.55L161.307 168.12L205.515 96.974Z" fill="#407BFF"/>
<path opacity="0.1" d="M199.426 92.6873L154.136 163.093L148.596 152.504L193.58 88.2722C206.298 70.1065 213.426 53.5074 213.454 44.2643C213.453 44.0856 213.515 43.9122 213.629 43.7749C213.744 43.6377 213.903 43.5455 214.079 43.5147C214.255 43.4839 214.437 43.5166 214.591 43.6069C214.745 43.6973 214.862 43.8394 214.921 44.008C218.126 53.2297 212.571 72.2571 199.426 92.6873Z" fill="white"/>
<path d="M161.275 168.104C168.477 157.875 162.372 141.172 147.637 130.797C132.903 120.423 115.12 120.305 107.918 130.534C100.715 140.763 106.821 157.465 121.555 167.84C136.289 178.215 154.072 178.333 161.275 168.104Z" fill="#407BFF"/>
<path opacity="0.5" d="M161.275 168.104C168.477 157.875 162.372 141.172 147.637 130.797C132.903 120.423 115.12 120.305 107.918 130.534C100.715 140.763 106.821 157.465 121.555 167.84C136.289 178.215 154.072 178.333 161.275 168.104Z" fill="white"/>
<path opacity="0.1" d="M155.738 119.206C144.031 110.96 130.75 108.603 122.269 112.455L109.06 129.104C116.893 120.359 133.634 120.958 147.634 130.813C161.634 140.669 167.851 156.257 162.239 166.561L173.327 148.758C174.281 139.408 167.573 127.537 155.738 119.206Z" fill="black"/>
<path opacity="0.2" d="M174.488 65.5278C171.24 70.6692 168.791 80.2897 178.44 87.0761C188.089 93.8624 196.321 88.3294 200.059 83.5155L174.488 65.5278Z" fill="black"/>
<path d="M202.338 77.5906C201.235 86.7767 190.617 93.4776 179.473 85.6302C168.328 77.7828 171.056 65.5276 179.33 61.4187C184.429 58.8694 190.923 59.9945 195.367 63.0851C199.81 66.1756 203.022 71.8938 202.338 77.5906Z" fill="white"/>
<path d="M180.989 83.4583C176.652 80.4105 174.431 76.4227 174.744 72.2498C174.886 70.4488 175.492 68.7152 176.503 67.2178C177.514 65.7204 178.895 64.5101 180.512 63.7045C184.386 61.7676 189.869 62.3729 193.85 65.1715C197.83 67.97 200.259 72.9405 199.725 77.2416C199.513 79.0306 198.842 80.7345 197.778 82.188C196.714 83.6416 195.292 84.7954 193.65 85.5376C189.848 87.2609 185.326 86.5132 180.989 83.4583Z" fill="#407BFF"/>
<path opacity="0.3" d="M180.989 83.4583C176.652 80.4105 174.431 76.4227 174.744 72.2498C174.886 70.4488 175.492 68.7152 176.503 67.2178C177.514 65.7204 178.895 64.5101 180.512 63.7045C184.386 61.7676 189.869 62.3729 193.85 65.1715C197.83 67.97 200.259 72.9405 199.725 77.2416C199.513 79.0306 198.842 80.7345 197.778 82.188C196.714 83.6416 195.292 84.7954 193.65 85.5376C189.848 87.2609 185.326 86.5132 180.989 83.4583Z" fill="black"/>
<path d="M180.989 83.4586C176.653 80.4108 174.353 76.5369 174.524 72.5634C174.597 70.874 175.137 69.2379 176.082 67.8356C177.027 66.4332 178.341 65.3192 179.879 64.6163C183.603 62.893 188.979 63.6479 192.96 66.4536C196.941 69.2592 199.461 74.0659 199.091 78.1534C198.947 79.8408 198.339 81.4554 197.333 82.818C196.328 84.1806 194.964 85.2379 193.394 85.8726C189.741 87.3751 185.326 86.5135 180.989 83.4586Z" fill="#407BFF"/>
<path opacity="0.2" d="M180.989 83.4586C176.653 80.4108 174.353 76.5369 174.524 72.5634C174.597 70.874 175.137 69.2379 176.082 67.8356C177.027 66.4332 178.341 65.3192 179.879 64.6163C183.603 62.893 188.979 63.6479 192.96 66.4536C196.941 69.2592 199.461 74.0659 199.091 78.1534C198.947 79.8408 198.339 81.4554 197.333 82.818C196.328 84.1806 194.964 85.2379 193.394 85.8726C189.741 87.3751 185.326 86.5135 180.989 83.4586Z" fill="white"/>
<path opacity="0.3" d="M195.979 69.2663L175.933 78.1106C174.939 76.4352 174.445 74.5104 174.509 72.5633C174.547 71.6462 174.727 70.7405 175.043 69.8787L187.982 64.1819C191.122 64.9778 193.922 66.7659 195.965 69.2805L195.979 69.2663Z" fill="white"/>
<path opacity="0.3" d="M198.856 74.9702L180.463 83.0739C179.356 82.2626 178.348 81.3259 177.458 80.2825L197.468 71.4524C198.093 72.5542 198.56 73.7384 198.856 74.9702Z" fill="white"/>
<path opacity="0.1" d="M218.909 59.1117C218.296 54.1982 214.522 48.5156 208.555 44.3142C202.587 40.1128 195.972 38.4749 191.137 39.5502C199.362 36.1962 206.732 36.068 211.83 39.657C216.929 43.246 219.293 50.2389 218.909 59.1117Z" fill="black"/>
<path opacity="0.5" d="M147.626 148.074C149.87 144.887 148.053 139.743 143.567 136.584C139.081 133.426 133.625 133.449 131.382 136.635C129.138 139.822 130.955 144.966 135.441 148.125C139.927 151.283 145.383 151.26 147.626 148.074Z" fill="#407BFF"/>
<path opacity="0.5" d="M126.471 145.084C124.228 148.267 118.773 148.295 114.287 145.134C109.8 141.972 107.977 136.831 110.221 133.647C112.464 130.464 117.926 130.436 122.412 133.598C126.898 136.759 128.685 141.901 126.471 145.084Z" fill="#407BFF"/>
<path opacity="0.5" d="M157.597 167.024C155.354 170.214 149.899 170.235 145.413 167.074C140.927 163.912 139.111 158.771 141.354 155.587C143.597 152.404 149.052 152.376 153.538 155.538C158.024 158.699 159.84 163.841 157.597 167.024Z" fill="#407BFF"/>
<path opacity="0.5" d="M136.44 164.026C134.197 167.209 128.742 167.23 124.256 164.075C119.77 160.921 117.954 155.772 120.197 152.582C122.44 149.392 127.895 149.378 132.381 152.532C136.867 155.687 138.655 160.835 136.44 164.026Z" fill="#407BFF"/>
<path opacity="0.5" d="M147.634 148.089C147.397 148.425 147.119 148.731 146.808 149C148.054 145.824 146.174 141.416 142.165 138.596C138.156 135.776 133.378 135.492 130.807 137.728C130.958 137.349 131.152 136.988 131.384 136.652C133.627 133.469 139.089 133.441 143.575 136.603C148.061 139.764 149.87 144.899 147.634 148.089Z" fill="#407BFF"/>
<path opacity="0.5" d="M126.471 145.084C126.235 145.418 125.96 145.724 125.652 145.995C126.898 142.812 125.026 138.411 121.009 135.584C116.993 132.757 112.222 132.479 109.651 134.722C109.801 134.343 109.994 133.982 110.228 133.647C112.471 130.457 117.926 130.436 122.412 133.597C126.898 136.759 128.686 141.893 126.471 145.084Z" fill="#407BFF"/>
<path opacity="0.5" d="M157.597 167.031C157.361 167.363 157.086 167.667 156.778 167.935C158.024 164.752 156.145 160.351 152.135 157.531C148.126 154.711 143.348 154.419 140.777 156.67C140.925 156.287 141.119 155.923 141.354 155.587C143.597 152.397 149.052 152.376 153.538 155.537C158.024 158.699 159.847 163.84 157.597 167.031Z" fill="#407BFF"/>
<path opacity="0.5" d="M136.44 164.026C136.208 164.361 135.933 164.665 135.622 164.93C136.868 161.754 134.988 157.346 130.979 154.526C126.969 151.706 122.191 151.421 119.621 153.664C119.767 153.281 119.961 152.917 120.197 152.582C122.441 149.392 127.895 149.378 132.381 152.532C136.868 155.687 138.655 160.835 136.44 164.026Z" fill="#407BFF"/>
<path d="M143.262 89.1482C143.262 89.1482 133.649 101.624 125.274 112.363C124.085 113.86 122.527 115.022 120.753 115.735C118.979 116.448 117.05 116.687 115.155 116.429C107.842 115.524 95.9287 120.701 95.9287 120.701C95.9287 120.701 118.467 83.6793 143.262 89.1482Z" fill="#407BFF"/>
<path opacity="0.3" d="M143.262 89.1482C143.262 89.1482 133.649 101.624 125.274 112.363C124.085 113.86 122.527 115.022 120.753 115.735C118.979 116.448 117.05 116.687 115.155 116.429C107.842 115.524 95.9287 120.701 95.9287 120.701C95.9287 120.701 118.467 83.6793 143.262 89.1482Z" fill="black"/>
<path d="M188.345 120.901C188.345 120.901 179.878 134.153 172.551 145.654C171.543 147.278 170.974 149.136 170.902 151.046C170.83 152.957 171.255 154.853 172.138 156.549C175.456 163.136 174.587 176.124 174.587 176.124C174.587 176.124 201.854 142.392 188.345 120.901Z" fill="#407BFF"/>
<path opacity="0.3" d="M188.345 120.901C188.345 120.901 179.878 134.153 172.551 145.654C171.543 147.278 170.974 149.136 170.902 151.046C170.83 152.957 171.255 154.853 172.138 156.549C175.456 163.136 174.587 176.124 174.587 176.124C174.587 176.124 201.854 142.392 188.345 120.901Z" fill="black"/>
<path d="M219.407 216.173C228.301 194.411 189.848 188.244 174.63 193.706C159.413 199.168 143.896 203.227 143.298 188.665C142.7 174.102 154.421 165.073 148.831 161.712C145.733 159.846 144.85 163.136 143.319 167.935C138.634 182.64 112.094 186.144 124.306 207.428C136.519 228.713 130.003 224.092 109.459 232.63C88.9146 241.168 99.4893 265.757 119.364 265.757H239.054C293.915 265.757 241.974 160.75 219.407 216.173Z" fill="#407BFF"/>
<path opacity="0.6" d="M219.407 216.173C228.301 194.411 189.848 188.244 174.63 193.706C159.413 199.168 143.896 203.227 143.298 188.665C142.7 174.102 154.421 165.073 148.831 161.712C145.733 159.846 144.85 163.136 143.319 167.935C138.634 182.64 112.094 186.144 124.306 207.428C136.519 228.713 130.003 224.092 109.459 232.63C88.9146 241.168 99.4893 265.757 119.364 265.757H239.054C293.915 265.757 241.974 160.75 219.407 216.173Z" fill="white"/>
<path d="M118.317 140.32C116.722 134.78 108.091 141.744 99.589 150.183C91.0865 158.621 86.8922 177.883 78.6674 187.924C70.4426 197.965 46.8934 207.037 56.1009 222.148C69.6807 244.415 38.4692 265.778 75.4345 265.778H151.252C165.117 265.778 180.149 248.823 158.558 237.294C136.967 225.765 104.624 252.647 95.8932 227.004C91.5636 214.279 107.287 220.118 100.002 199.282C92.7172 178.446 93.2014 172.771 96.9115 163.485C105.941 140.854 120.774 148.737 118.317 140.32Z" fill="#407BFF"/>
<path opacity="0.6" d="M118.317 140.32C116.722 134.78 108.091 141.744 99.589 150.183C91.0865 158.621 86.8922 177.883 78.6674 187.924C70.4426 197.965 46.8934 207.037 56.1009 222.148C69.6807 244.415 38.4692 265.778 75.4345 265.778H151.252C165.117 265.778 180.149 248.823 158.558 237.294C136.967 225.765 104.624 252.647 95.8932 227.004C91.5636 214.279 107.287 220.118 100.002 199.282C92.7172 178.446 93.2014 172.771 96.9115 163.485C105.941 140.854 120.774 148.737 118.317 140.32Z" fill="white"/>
<path d="M134.034 142.876C135.914 139.444 142.365 141.502 142.223 145.995C142.08 150.489 125.374 156.378 128.479 171.894C131.584 187.411 161.407 188.522 168.407 204.067C175.407 219.612 148.29 221.791 156.379 231.512C164.469 241.232 189.435 218.907 207.224 224.647C225.012 230.386 242.786 265.757 210.157 265.757H109.616C87.7541 265.757 71.7888 220.616 92.7958 202.045C113.803 183.473 96.8548 189.505 104.695 177.605C112.535 165.706 126.82 156.036 134.034 142.876Z" fill="#407BFF"/>
<path opacity="0.8" d="M134.034 142.876C135.914 139.444 142.365 141.502 142.223 145.995C142.08 150.489 125.374 156.378 128.479 171.894C131.584 187.411 161.407 188.522 168.407 204.067C175.407 219.612 148.29 221.791 156.379 231.512C164.469 241.232 189.435 218.907 207.224 224.647C225.012 230.386 242.786 265.757 210.157 265.757H109.616C87.7541 265.757 71.7888 220.616 92.7958 202.045C113.803 183.473 96.8548 189.505 104.695 177.605C112.535 165.706 126.82 156.036 134.034 142.876Z" fill="white"/>
</svg>
