<svg width="16" height="17" viewBox="0 0 16 17" fill="none" xmlns="http://www.w3.org/2000/svg">
<g clip-path="url(#clip0_427_5078)">
<path d="M8 0.5C9.6 0.5 11.1644 0.5 12.7644 0.5C14.3644 0.5 15.6444 1.56667 15.9644 3.13111C16 3.34444 16 3.55778 16 3.73556C16 6.18889 16 8.64222 16 11.1311C16 12.98 14.5778 14.3667 12.7644 14.3667C11.9467 14.3667 11.0933 14.3667 10.2756 14.3667C10.1689 14.3667 10.0978 14.4022 10.0267 14.4733C9.52889 15.0422 8.99556 15.6467 8.49778 16.2156C8.17778 16.5711 7.85778 16.5711 7.53778 16.2156C7.04 15.6467 6.54222 15.0778 6.00889 14.4733C5.93778 14.3667 5.86667 14.3311 5.72444 14.3311C4.90667 14.3311 4.05333 14.3311 3.23556 14.3311C1.63556 14.3311 0.355556 13.2644 0.0355556 11.7C0 11.5222 0 11.3444 0 11.1311C0 8.67778 0 6.18889 0 3.73556C0 1.92222 1.42222 0.5 3.23556 0.5C4.83556 0.5 6.4 0.5 8 0.5ZM8 3.7C7.75111 3.7 7.53778 3.87778 7.46667 4.16222C7.36 4.55333 7.28889 4.98 7.18222 5.37111C7.04 6.04667 6.61333 6.47333 5.93778 6.65111C5.54667 6.75778 5.12 6.82889 4.72889 6.93556C4.44444 7.00667 4.26667 7.22 4.26667 7.46889C4.26667 7.75333 4.44444 7.93111 4.76444 8.00222C5.19111 8.10889 5.61778 8.18 6.04444 8.28667C6.64889 8.42889 7.04 8.82 7.18222 9.42445C7.28889 9.85111 7.39556 10.2778 7.46667 10.7044C7.53778 11.0244 7.75111 11.1667 8 11.1667C8.28444 11.1667 8.46222 10.9889 8.53333 10.6689C8.64 10.2778 8.71111 9.88667 8.81778 9.49556C8.99556 8.82 9.42222 8.39333 10.0978 8.21556C10.4889 8.14444 10.88 8.03778 11.2711 7.96667C11.5911 7.89556 11.7333 7.68222 11.7333 7.43333C11.7333 7.14889 11.5556 6.97111 11.2356 6.9C10.8444 6.79333 10.4533 6.72222 10.0978 6.65111C9.38667 6.50889 8.96 6.04667 8.78222 5.37111C8.67556 4.98 8.60444 4.58889 8.49778 4.19778C8.46222 3.87778 8.24889 3.7 8 3.7Z" fill="#374151"/>
</g>
<defs>
<clipPath id="clip0_427_5078">
<rect width="16" height="16" fill="white" transform="translate(0 0.5)"/>
</clipPath>
</defs>
</svg>
