<svg width="32" height="32" viewBox="0 0 32 32" fill="none" xmlns="http://www.w3.org/2000/svg">
<path d="M19.1714 20.7946C19.3161 20.9393 19.3161 21.1589 19.1714 21.2875C17.8589 22.6 14.1464 22.6054 12.8286 21.2875C12.6839 21.1589 12.6839 20.9393 12.8286 20.7946C12.9571 20.6661 13.1768 20.6661 13.3054 20.7946C14.3071 21.8232 17.6446 21.8446 18.6893 20.7946C18.8179 20.6714 19.0429 20.6714 19.1714 20.7946ZM14.2804 17.9125C14.2804 17.1143 13.6429 16.4768 12.8607 16.4768C12.0625 16.4768 11.425 17.1143 11.425 17.9125C11.425 18.6946 12.0625 19.3321 12.8607 19.3321C13.6429 19.3321 14.2804 18.6946 14.2804 17.9125ZM19.1393 16.4768C18.3571 16.4768 17.7196 17.1143 17.7196 17.9125C17.7196 18.6946 18.3571 19.3321 19.1393 19.3321C19.9375 19.3321 20.575 18.6946 20.575 17.9125C20.575 17.1143 19.9375 16.4768 19.1393 16.4768ZM28 6.57143V25.4286C28 26.8482 26.8482 28 25.4286 28H6.57143C5.15179 28 4 26.8482 4 25.4286V6.57143C4 5.15179 5.15179 4 6.57143 4H25.4286C26.8482 4 28 5.15179 28 6.57143ZM22.6589 14.1036C22.1179 14.1036 21.6411 14.3286 21.2875 14.6768C19.9964 13.7821 18.2607 13.2089 16.3321 13.1446L17.3339 8.63393L20.5214 9.35179C20.5214 10.1339 21.1589 10.7714 21.9411 10.7714C22.7393 10.7714 23.3768 10.1179 23.3768 9.33571C23.3768 8.55357 22.7393 7.9 21.9411 7.9C21.3839 7.9 20.9071 8.23214 20.6661 8.69821L17.1464 7.91607C16.9696 7.86786 16.7982 7.99643 16.75 8.17321L15.6518 13.1446C13.7393 13.225 12.0196 13.7982 10.7286 14.6929C10.3804 14.3286 9.88214 14.1036 9.34107 14.1036C7.33214 14.1036 6.67321 16.8036 8.51071 17.7196C8.44643 18.0089 8.41429 18.3089 8.41429 18.6143C8.41429 21.6411 11.8268 24.0946 16.0161 24.0946C20.2214 24.0946 23.6339 21.6411 23.6339 18.6143C23.6339 18.3089 23.6018 17.9929 23.5214 17.7036C25.3214 16.7821 24.6571 14.1036 22.6589 14.1036Z" fill="#374151"/>
</svg>
